<svg width="512pt" height="512pt" version="1.1" viewBox="0 0 512 512" xmlns="http://www.w3.org/2000/svg">
 <path d="m230.4 153.6c0-16.969 13.754-30.723 30.723-30.723h61.438c50.898 0 92.16 41.262 92.16 92.16v66.562c0-2.8281-2.2891-5.1211-5.1172-5.1211-2.8281 0-5.1211 2.293-5.1211 5.1211 0 2.8281 2.293 5.1172 5.1211 5.1172 2.8281 0 5.1172-2.2891 5.1172-5.1172v15.359c0 1.3906-0.03125 2.7734-0.089844 4.1484-0.45312-2.3633-2.5312-4.1484-5.0273-4.1484-2.8281 0-5.1211 2.293-5.1211 5.1172 0 2.8281 2.293 5.1211 5.1211 5.1211 2.2891 0 4.2266-1.5 4.8828-3.5742-0.35547 4.9727-1.1055 9.8359-2.2227 14.562-0.77344-0.47266-1.6875-0.74609-2.6602-0.74609-2.8281 0-5.1211 2.2891-5.1211 5.1172 0 2.7891 2.2266 5.0547 4.9961 5.1211-9.2539 26.188-30.012 46.941-56.199 56.195-0.0625-2.7695-2.332-4.9961-5.1172-4.9961-2.8281 0-5.1211 2.293-5.1211 5.1211 0 0.97656 0.27344 1.8867 0.74609 2.6641-4.7227 1.1133-9.5859 1.8633-14.559 2.2188 2.0703-0.65625 3.5742-2.5938 3.5742-4.8828 0-2.8281-2.293-5.1211-5.1211-5.1211-2.8281 0-5.1211 2.293-5.1211 5.1211 0 2.4961 1.7891 4.5742 4.1523 5.0273-1.375 0.0625-2.7617 0.09375-4.1523 0.09375h-15.359c2.8281 0 5.1211-2.293 5.1211-5.1211s-2.293-5.1211-5.1211-5.1211-5.1211 2.293-5.1211 5.1211 2.293 5.1211 5.1211 5.1211h-20.84c3.4844-6.0273 5.4805-13.02 5.4805-20.48 0-7.4648-1.9961-14.465-5.4883-20.492 0.12109 0.007812 0.24609 0.011718 0.36719 0.011718 2.8281 0 5.1211-2.293 5.1211-5.1211 0-2.8281-2.293-5.1172-5.1211-5.1172-2.375 0-4.375 1.6172-4.9531 3.8164-1.1797-1.3555-2.4453-2.6289-3.793-3.8164 8.5039-7.5078 13.867-18.488 13.867-30.723 0-7.4648-1.9961-14.465-5.4883-20.492 0.12109 0.007813 0.24609 0.011719 0.36719 0.011719 2.8281 0 5.1211-2.2891 5.1211-5.1172 0-2.8281-2.293-5.1211-5.1211-5.1211-2.375 0-4.375 1.6211-4.9531 3.8164-1.2344-1.418-2.5664-2.75-3.9844-3.9844 2.1992-0.57422 3.8203-2.5742 3.8203-4.9531 0-2.8281-2.293-5.1211-5.1211-5.1211s-5.1211 2.293-5.1211 5.1211c0 0.125 0.003906 0.24609 0.011719 0.36719-1.4609-0.84766-2.9805-1.6055-4.5508-2.2695 11.137-9.5586 19.309-22.48 22.938-37.191 13.117 14.574 32.129 23.734 53.281 23.734 5.6562 0 10.242-4.5859 10.242-10.238 0-5.6562-4.5859-10.242-10.242-10.242-28.277 0-51.199-22.922-51.199-51.199 0-5.6562-4.5859-10.242-10.238-10.242-5.6562 0-10.242 4.5859-10.242 10.242v30.719c0 24.77-17.59 45.434-40.961 50.176zm30.723-51.203c-24.77 0-45.434 17.59-50.176 40.961h-154.62c-22.621 0-40.961 18.34-40.961 40.961 0 22.621 18.34 40.961 40.961 40.961h56.68c-3.4844 6.0234-5.4805 13.02-5.4805 20.48 0 12.23 5.3633 23.211 13.867 30.719-8.5039 7.5039-13.867 18.484-13.867 30.719 0 17.867 11.441 33.062 27.395 38.66-4.3672 6.5156-6.9141 14.352-6.9141 22.781 0 22.621 18.34 40.961 40.961 40.961h153.6c38.098 0 71.777-18.914 92.16-47.863v17.141c0 5.6562 4.5859 10.242 10.242 10.242h61.438c5.6562 0 10.242-4.5859 10.242-10.242v-245.76c0-5.6562-4.5859-10.242-10.242-10.242h-61.438c-5.6562 0-10.242 4.5859-10.242 10.242v17.141c-20.383-28.949-54.062-47.863-92.16-47.863zm-225.28 81.922c0-11.312 9.168-20.48 20.48-20.48h153.6v35.84c0-2.8281-2.293-5.1211-5.1211-5.1211s-5.1211 2.293-5.1211 5.1211c0 2.8242 2.2852 5.1133 5.1094 5.1211h-20.457c2.8203-0.007812 5.1094-2.2969 5.1094-5.1211 0-2.8281-2.293-5.1211-5.1211-5.1211-2.8281 0-5.1211 2.293-5.1211 5.1211 0 2.8242 2.2891 5.1133 5.1094 5.1211h-20.457c2.8203-0.007812 5.1094-2.2969 5.1094-5.1211 0-2.8281-2.293-5.1211-5.1211-5.1211s-5.1211 2.293-5.1211 5.1211c0 2.8242 2.2891 5.1133 5.1094 5.1211h-20.457c2.8203-0.007812 5.1094-2.2969 5.1094-5.1211 0-2.8281-2.293-5.1211-5.1211-5.1211s-5.1211 2.293-5.1211 5.1211c0 2.8242 2.2891 5.1133 5.1133 5.1211h-20.465c2.8242-0.003906 5.1133-2.2969 5.1133-5.1211 0-2.8281-2.293-5.1211-5.1211-5.1211s-5.1172 2.293-5.1172 5.1211c0 2.8242 2.2852 5.1172 5.1133 5.1211h-20.469c2.8242-0.003906 5.1133-2.2969 5.1133-5.1211 0-2.8281-2.293-5.1211-5.1211-5.1211-2.8281 0-5.1172 2.293-5.1172 5.1211 0 2.8242 2.2891 5.1172 5.1133 5.1211h-20.469c2.8242-0.003906 5.1133-2.293 5.1133-5.1211 0-2.8281-2.293-5.1211-5.1172-5.1211-2.8281 0-5.1211 2.293-5.1211 5.1211 0 2.8281 2.2891 5.1172 5.1133 5.1211h-20.473c2.8281-0.003906 5.1172-2.293 5.1172-5.1211 0-2.8281-2.2891-5.1211-5.1172-5.1211s-5.1211 2.293-5.1211 5.1211c0 2.8281 2.2891 5.1172 5.1172 5.1211h-5.1172c-3.918 0-7.582-1.1016-10.695-3.0117 0.29297-0.64453 0.45312-1.3555 0.45312-2.1094 0-2.8281-2.2891-5.1211-5.1172-5.1211-0.75391 0-1.4688 0.16406-2.1094 0.45312-1.9102-3.1094-3.0117-6.7734-3.0117-10.691zm174.08 15.359v5.1211h-5.1133c2.8242-0.007812 5.1133-2.2969 5.1133-5.1211zm-61.441 25.602h-0.015625c-11.305 0.007812-20.465 9.1719-20.465 20.48 0 1.168 0.097656 2.3125 0.28516 3.4258 0.69922-1.9961 2.5977-3.4258 4.8359-3.4258 2.8281 0 5.1172 2.2891 5.1172 5.1172s-2.2891 5.1211-5.1172 5.1211c-1.0586 0-2.0391-0.32031-2.8555-0.87109 1.9531 3.793 5.0547 6.8945 8.8438 8.8477-0.55078-0.81641-0.87109-1.8008-0.87109-2.8555 0-2.8281 2.293-5.1211 5.1211-5.1211s5.1211 2.293 5.1211 5.1211c0 2.2344-1.4336 4.1367-3.4297 4.832 1.1133 0.1875 2.2617 0.28516 3.4297 0.28516h61.441v-40.957zm61.441 35.84c0 2.8281-2.293 5.1172-5.1211 5.1172s-5.1211-2.2891-5.1211-5.1172 2.293-5.1211 5.1211-5.1211 5.1211 2.293 5.1211 5.1211zm-25.602 5.1172c-2.8281 0-5.1211-2.2891-5.1211-5.1172s2.293-5.1211 5.1211-5.1211c2.8281 0 5.1211 2.293 5.1211 5.1211s-2.293 5.1172-5.1211 5.1172zm-20.48 0c-2.8281 0-5.1211-2.2891-5.1211-5.1172s2.293-5.1211 5.1211-5.1211 5.1211 2.293 5.1211 5.1211-2.293 5.1172-5.1211 5.1172zm-15.359 20.48c-11.312 0-20.48 9.1719-20.48 20.48 0 1.168 0.097656 2.3164 0.28516 3.4297 0.69922-1.9961 2.5977-3.4297 4.8359-3.4297 2.8281 0 5.1172 2.293 5.1172 5.1211 0 2.8281-2.2891 5.1211-5.1172 5.1211-1.0586 0-2.0391-0.32031-2.8555-0.87109 1.9531 3.7891 5.0547 6.8906 8.8438 8.8438-0.55078-0.8125-0.87109-1.7969-0.87109-2.8555 0-2.8281 2.293-5.1172 5.1211-5.1172s5.1211 2.2891 5.1211 5.1172c0 2.2383-1.4336 4.1367-3.4297 4.8359 1.1133 0.1875 2.2617 0.28516 3.4297 0.28516h102.4c11.312 0 20.48-9.168 20.48-20.48 0-11.309-9.168-20.48-20.48-20.48zm97.281 40.961c-2.8281 0-5.1211-2.293-5.1211-5.1211s2.293-5.1172 5.1211-5.1172c2.8242 0 5.1172 2.2891 5.1172 5.1172s-2.293 5.1211-5.1172 5.1211zm-20.48 0c-2.8281 0-5.1211-2.293-5.1211-5.1211s2.293-5.1172 5.1211-5.1172 5.1172 2.2891 5.1172 5.1172-2.2891 5.1211-5.1172 5.1211zm-20.48 0c-2.8281 0-5.1211-2.293-5.1211-5.1211s2.293-5.1172 5.1211-5.1172 5.1211 2.2891 5.1211 5.1172-2.293 5.1211-5.1211 5.1211zm-20.48 0c-2.8281 0-5.1211-2.293-5.1211-5.1211s2.293-5.1172 5.1211-5.1172c2.8281 0 5.1211 2.2891 5.1211 5.1172s-2.293 5.1211-5.1211 5.1211zm-20.48 0c-2.8281 0-5.1211-2.293-5.1211-5.1211s2.293-5.1172 5.1211-5.1172 5.1211 2.2891 5.1211 5.1172-2.293 5.1211-5.1211 5.1211zm312.32 40.961h-40.961v-225.28h40.961zm-204.8 0c0 11.309-9.168 20.48-20.48 20.48h-5.1172c2.8242 0 5.1172-2.293 5.1172-5.1211s-2.293-5.1211-5.1172-5.1211c-2.8281 0-5.1211 2.293-5.1211 5.1211s2.293 5.1211 5.1211 5.1211h-20.48c2.8281 0 5.1172-2.293 5.1172-5.1211s-2.2891-5.1211-5.1172-5.1211-5.1211 2.293-5.1211 5.1211 2.293 5.1211 5.1211 5.1211h-20.48c2.8281 0 5.1211-2.293 5.1211-5.1211s-2.293-5.1211-5.1211-5.1211-5.1211 2.293-5.1211 5.1211 2.293 5.1211 5.1211 5.1211h-20.48c2.8281 0 5.1211-2.293 5.1211-5.1211s-2.293-5.1211-5.1211-5.1211c-2.8281 0-5.1211 2.293-5.1211 5.1211s2.293 5.1211 5.1211 5.1211h-15.359c-1.168 0-2.3164-0.097656-3.4297-0.28516 1.9961-0.69922 3.4297-2.6016 3.4297-4.8359 0-2.8281-2.293-5.1211-5.1211-5.1211s-5.1211 2.293-5.1211 5.1211c0 1.0586 0.32031 2.0391 0.87109 2.8555-3.7891-1.9531-6.8906-5.0547-8.8438-8.8438 0.8125 0.54688 1.7969 0.86719 2.8555 0.86719 2.8281 0 5.1172-2.293 5.1172-5.1172 0-2.8281-2.2891-5.1211-5.1172-5.1211-2.2383 0-4.1367 1.4297-4.8359 3.4297-0.1875-1.1172-0.28516-2.2617-0.28516-3.4297 0-11.312 9.168-20.48 20.48-20.48h81.918c11.312 0 20.48 9.168 20.48 20.48zm-112.64-117.76c0-2.8281-2.2891-5.1172-5.1172-5.1172-2.8281 0-5.1211 2.2891-5.1211 5.1172s2.293 5.1211 5.1211 5.1211c2.8281 0 5.1172-2.293 5.1172-5.1211zm20.48 0c0-2.8281-2.293-5.1172-5.1211-5.1172-2.8242 0-5.1172 2.2891-5.1172 5.1172s2.293 5.1211 5.1172 5.1211c2.8281 0 5.1211-2.293 5.1211-5.1211zm20.48 0c0-2.8281-2.293-5.1172-5.1211-5.1172s-5.1172 2.2891-5.1172 5.1172 2.2891 5.1211 5.1172 5.1211 5.1211-2.293 5.1211-5.1211zm-40.961 61.441c0-2.8281-2.2891-5.1211-5.1172-5.1211-2.8281 0-5.1211 2.293-5.1211 5.1211 0 2.8281 2.293 5.1211 5.1211 5.1211 2.8281 0 5.1172-2.293 5.1172-5.1211zm20.48 0c0-2.8281-2.293-5.1211-5.1211-5.1211-2.8242 0-5.1172 2.293-5.1172 5.1211 0 2.8281 2.293 5.1211 5.1172 5.1211 2.8281 0 5.1211-2.293 5.1211-5.1211zm20.48 0c0-2.8281-2.293-5.1211-5.1211-5.1211s-5.1172 2.293-5.1172 5.1211c0 2.8281 2.2891 5.1211 5.1172 5.1211s5.1211-2.293 5.1211-5.1211zm20.48 0c0-2.8281-2.293-5.1211-5.1211-5.1211-2.8281 0-5.1172 2.293-5.1172 5.1211 0 2.8281 2.2891 5.1211 5.1172 5.1211 2.8281 0 5.1211-2.293 5.1211-5.1211zm20.48 0c0-2.8281-2.293-5.1211-5.1211-5.1211s-5.1211 2.293-5.1211 5.1211c0 2.8281 2.293 5.1211 5.1211 5.1211s5.1211-2.293 5.1211-5.1211zm20.48 0c0-2.8281-2.293-5.1211-5.1211-5.1211s-5.1211 2.293-5.1211 5.1211c0 2.8281 2.293 5.1211 5.1211 5.1211s5.1211-2.293 5.1211-5.1211zm-87.043 56.32c2.8281 0 5.1211 2.293 5.1211 5.1211 0 2.8242-2.293 5.1172-5.1211 5.1172-2.8242 0-5.1172-2.293-5.1172-5.1172 0-2.8281 2.293-5.1211 5.1172-5.1211zm20.48 0c2.8281 0 5.1211 2.293 5.1211 5.1211 0 2.8242-2.293 5.1172-5.1211 5.1172s-5.1172-2.293-5.1172-5.1172c0-2.8281 2.2891-5.1211 5.1172-5.1211zm20.48 0c2.8281 0 5.1211 2.293 5.1211 5.1211 0 2.8242-2.293 5.1172-5.1211 5.1172-2.8281 0-5.1172-2.293-5.1172-5.1172 0-2.8281 2.2891-5.1211 5.1172-5.1211zm20.48 0c2.8281 0 5.1211 2.293 5.1211 5.1211 0 2.8242-2.293 5.1172-5.1211 5.1172s-5.1211-2.293-5.1211-5.1172c0-2.8281 2.293-5.1211 5.1211-5.1211zm20.48 0c2.8281 0 5.1211 2.293 5.1211 5.1211 0 2.8242-2.293 5.1172-5.1211 5.1172s-5.1211-2.293-5.1211-5.1172c0-2.8281 2.293-5.1211 5.1211-5.1211zm-204.8-184.32c2.8281 0 5.1211 2.293 5.1211 5.1211s-2.293 5.1172-5.1211 5.1172-5.1211-2.2891-5.1211-5.1172 2.293-5.1211 5.1211-5.1211zm20.48 0c2.8281 0 5.1211 2.293 5.1211 5.1211s-2.293 5.1172-5.1211 5.1172c-2.8281 0-5.1211-2.2891-5.1211-5.1172s2.293-5.1211 5.1211-5.1211zm20.48 0c2.8281 0 5.1211 2.293 5.1211 5.1211s-2.293 5.1172-5.1211 5.1172-5.1211-2.2891-5.1211-5.1172 2.293-5.1211 5.1211-5.1211zm20.48 0c2.8281 0 5.1211 2.293 5.1211 5.1211s-2.293 5.1172-5.1211 5.1172-5.1211-2.2891-5.1211-5.1172 2.293-5.1211 5.1211-5.1211zm20.48 0c2.8281 0 5.1172 2.293 5.1172 5.1211s-2.2891 5.1172-5.1172 5.1172-5.1211-2.2891-5.1211-5.1172 2.293-5.1211 5.1211-5.1211zm20.48 0c2.8281 0 5.1172 2.293 5.1172 5.1211s-2.2891 5.1172-5.1172 5.1172c-2.8281 0-5.1211-2.2891-5.1211-5.1172s2.293-5.1211 5.1211-5.1211zm20.477 0c2.8281 0 5.1211 2.293 5.1211 5.1211s-2.293 5.1172-5.1211 5.1172c-2.8242 0-5.1172-2.2891-5.1172-5.1172s2.293-5.1211 5.1172-5.1211zm20.48 0c2.8281 0 5.1211 2.293 5.1211 5.1211s-2.293 5.1172-5.1211 5.1172-5.1172-2.2891-5.1172-5.1172 2.2891-5.1211 5.1172-5.1211zm92.16 71.68c2.8281 0 5.1211 2.293 5.1211 5.1211s-2.293 5.1172-5.1211 5.1172-5.1172-2.2891-5.1172-5.1172 2.2891-5.1211 5.1172-5.1211zm10.242 10.238c2.8281 0 5.1172 2.293 5.1172 5.1211s-2.2891 5.1211-5.1172 5.1211c-2.8281 0-5.1211-2.293-5.1211-5.1211s2.293-5.1211 5.1211-5.1211zm5.1172 25.602c0-2.8281-2.2891-5.1211-5.1172-5.1211-2.8281 0-5.1211 2.293-5.1211 5.1211s2.293 5.1211 5.1211 5.1211c2.8281 0 5.1172-2.293 5.1172-5.1211zm-5.1172 15.359c2.8281 0 5.1172 2.293 5.1172 5.1211 0 2.8281-2.2891 5.1211-5.1172 5.1211-2.8281 0-5.1211-2.293-5.1211-5.1211 0-2.8281 2.293-5.1211 5.1211-5.1211zm5.1172 25.602c0-2.8281-2.2891-5.1211-5.1172-5.1211-2.8281 0-5.1211 2.293-5.1211 5.1211s2.293 5.1211 5.1211 5.1211c2.8281 0 5.1172-2.293 5.1172-5.1211zm-5.1172 15.359c2.8281 0 5.1172 2.293 5.1172 5.1211s-2.2891 5.1172-5.1172 5.1172c-2.8281 0-5.1211-2.2891-5.1211-5.1172s2.293-5.1211 5.1211-5.1211zm5.1172 25.602c0-2.8281-2.2891-5.1211-5.1172-5.1211-2.8281 0-5.1211 2.293-5.1211 5.1211 0 2.8242 2.293 5.1172 5.1211 5.1172 2.8281 0 5.1172-2.293 5.1172-5.1172zm5.1211-56.32c2.8281 0 5.1211 2.2891 5.1211 5.1172s-2.293 5.1211-5.1211 5.1211-5.1211-2.293-5.1211-5.1211 2.293-5.1172 5.1211-5.1172zm5.1211 25.598c0-2.8281-2.293-5.1172-5.1211-5.1172s-5.1211 2.2891-5.1211 5.1172c0 2.8281 2.293 5.1211 5.1211 5.1211s5.1211-2.293 5.1211-5.1211zm-5.1211 15.359c2.8281 0 5.1211 2.293 5.1211 5.1211s-2.293 5.1211-5.1211 5.1211-5.1211-2.293-5.1211-5.1211 2.293-5.1211 5.1211-5.1211zm10.242-30.719c2.8281 0 5.1172 2.293 5.1172 5.1211s-2.2891 5.1211-5.1172 5.1211-5.1211-2.293-5.1211-5.1211 2.293-5.1211 5.1211-5.1211zm5.1172 25.602c0-2.8281-2.2891-5.1211-5.1172-5.1211s-5.1211 2.293-5.1211 5.1211 2.293 5.1172 5.1211 5.1172 5.1172-2.2891 5.1172-5.1172zm-5.1172 15.359c2.8281 0 5.1172 2.293 5.1172 5.1211 0 2.8242-2.2891 5.1172-5.1172 5.1172s-5.1211-2.293-5.1211-5.1172c0-2.8281 2.293-5.1211 5.1211-5.1211zm15.359-25.602c0-2.8281-2.293-5.1172-5.1211-5.1172-2.8281 0-5.1211 2.2891-5.1211 5.1172 0 2.8281 2.293 5.1211 5.1211 5.1211 2.8281 0 5.1211-2.293 5.1211-5.1211zm-5.1211 15.359c2.8281 0 5.1211 2.293 5.1211 5.1211s-2.293 5.1211-5.1211 5.1211c-2.8281 0-5.1211-2.293-5.1211-5.1211s2.293-5.1211 5.1211-5.1211zm10.242-30.719c2.8242 0 5.1172 2.293 5.1172 5.1211s-2.293 5.1211-5.1172 5.1211c-2.8281 0-5.1211-2.293-5.1211-5.1211s2.293-5.1211 5.1211-5.1211zm5.1172 25.602c0-2.8281-2.293-5.1211-5.1172-5.1211-2.8281 0-5.1211 2.293-5.1211 5.1211s2.293 5.1172 5.1211 5.1172c2.8242 0 5.1172-2.2891 5.1172-5.1172zm-5.1172 15.359c2.8242 0 5.1172 2.293 5.1172 5.1211 0 2.8242-2.293 5.1172-5.1172 5.1172-2.8281 0-5.1211-2.293-5.1211-5.1172 0-2.8281 2.293-5.1211 5.1211-5.1211zm15.359-25.602c0-2.8281-2.293-5.1172-5.1211-5.1172s-5.1211 2.2891-5.1211 5.1172c0 2.8281 2.293 5.1211 5.1211 5.1211s5.1211-2.293 5.1211-5.1211zm-5.1211 15.359c2.8281 0 5.1211 2.293 5.1211 5.1211s-2.293 5.1211-5.1211 5.1211-5.1211-2.293-5.1211-5.1211 2.293-5.1211 5.1211-5.1211zm10.238-30.719c2.8281 0 5.1211 2.293 5.1211 5.1211s-2.293 5.1211-5.1211 5.1211c-2.8281 0-5.1172-2.293-5.1172-5.1211s2.2891-5.1211 5.1172-5.1211zm5.1211 25.602c0-2.8281-2.293-5.1211-5.1211-5.1211-2.8281 0-5.1172 2.293-5.1172 5.1211s2.2891 5.1172 5.1172 5.1172c2.8281 0 5.1211-2.2891 5.1211-5.1172zm-5.1211 15.359c2.8281 0 5.1211 2.293 5.1211 5.1211 0 2.8242-2.293 5.1172-5.1211 5.1172-2.8281 0-5.1172-2.293-5.1172-5.1172 0-2.8281 2.2891-5.1211 5.1172-5.1211zm15.363-46.082c0-2.8281-2.293-5.1172-5.1211-5.1172s-5.1211 2.2891-5.1211 5.1172 2.293 5.1211 5.1211 5.1211 5.1211-2.293 5.1211-5.1211zm-5.1211 15.363c2.8281 0 5.1211 2.2891 5.1211 5.1172 0 2.8281-2.293 5.1211-5.1211 5.1211s-5.1211-2.293-5.1211-5.1211c0-2.8281 2.293-5.1172 5.1211-5.1172zm5.1211 25.598c0-2.8281-2.293-5.1211-5.1211-5.1211s-5.1211 2.293-5.1211 5.1211 2.293 5.1211 5.1211 5.1211 5.1211-2.293 5.1211-5.1211zm5.1172-56.32c2.8281 0 5.1211 2.293 5.1211 5.1211 0 2.8281-2.293 5.1211-5.1211 5.1211s-5.1172-2.293-5.1172-5.1211c0-2.8281 2.2891-5.1211 5.1172-5.1211zm5.1211 25.602c0-2.8281-2.293-5.1211-5.1211-5.1211s-5.1172 2.293-5.1172 5.1211 2.2891 5.1211 5.1172 5.1211 5.1211-2.293 5.1211-5.1211zm-5.1211 15.359c2.8281 0 5.1211 2.293 5.1211 5.1211s-2.293 5.1172-5.1211 5.1172-5.1172-2.2891-5.1172-5.1172 2.2891-5.1211 5.1172-5.1211zm15.359-46.082c0-2.8242-2.2891-5.1172-5.1172-5.1172s-5.1211 2.293-5.1211 5.1172c0 2.8281 2.293 5.1211 5.1211 5.1211s5.1172-2.293 5.1172-5.1211zm-5.1172 15.363c2.8281 0 5.1172 2.2891 5.1172 5.1172s-2.2891 5.1211-5.1172 5.1211-5.1211-2.293-5.1211-5.1211 2.293-5.1172 5.1211-5.1172zm5.1172 25.598c0-2.8281-2.2891-5.1172-5.1172-5.1172s-5.1211 2.2891-5.1211 5.1172c0 2.8281 2.293 5.1211 5.1211 5.1211s5.1172-2.293 5.1172-5.1211zm5.1211-56.32c2.8281 0 5.1211 2.293 5.1211 5.1211s-2.293 5.1211-5.1211 5.1211-5.1211-2.293-5.1211-5.1211 2.293-5.1211 5.1211-5.1211zm5.1211 25.602c0-2.8281-2.293-5.1211-5.1211-5.1211s-5.1211 2.293-5.1211 5.1211c0 2.8281 2.293 5.1211 5.1211 5.1211s5.1211-2.293 5.1211-5.1211zm-5.1211 15.359c2.8281 0 5.1211 2.293 5.1211 5.1211s-2.293 5.1211-5.1211 5.1211-5.1211-2.293-5.1211-5.1211 2.293-5.1211 5.1211-5.1211z" fill-rule="evenodd"/>
</svg>
