<svg width="512pt" height="512pt" version="1.1" viewBox="0 0 512 512" xmlns="http://www.w3.org/2000/svg">
 <g>
  <path d="m408.79 111.21c-4.75-35.609-24.227-67.59-53.68-88.156-29.453-20.562-66.188-27.828-101.25-20.02-35.066 7.8086-65.246 29.969-83.191 61.09-11.582-4.0586-23.957-5.332-36.121-3.7148-17.102 2.3477-32.914 10.395-44.875 22.84-11.961 12.445-19.379 28.562-21.047 45.742-0.61719 6.4688-0.44141 12.984 0.52734 19.406-29.477 8.0664-53.18 29.977-63.535 58.727-10.359 28.75-6.0703 60.746 11.492 85.754 17.559 25.012 46.199 39.906 76.758 39.926h38.699l5.9727 57.344c1.4219 13.859 7.6562 26.785 17.621 36.523h-45.227c-9.1445 0-17.598 4.8789-22.172 12.797-4.5703 7.9219-4.5703 17.68 0 25.602 4.5742 7.9219 13.027 12.801 22.172 12.801h12.801l17.922 23.895h-0.003906c4.8438 6.4336 12.426 10.227 20.48 10.238h187.73c8.0547-0.011719 15.637-3.8047 20.48-10.238l17.918-23.895h12.801c9.1445 0 17.598-4.8789 22.172-12.801 4.5703-7.9219 4.5703-17.68 0-25.602-4.5742-7.918-13.027-12.797-22.172-12.797h-45.227c9.9727-9.7383 16.211-22.66 17.637-36.523l3.3047-31.746h24.285c12.605-0.019532 24.883-4.0195 35.082-11.434 10.195-7.4102 17.789-17.855 21.699-29.84 27.27-16.211 46.289-43.328 52.246-74.488 5.957-31.156-1.7188-63.375-21.086-88.504-19.367-25.125-48.57-40.754-80.219-42.926zm-52.098 380.31c-1.6133 2.1445-4.1406 3.4062-6.8242 3.4141h-187.73c-2.6836-0.007813-5.2109-1.2695-6.8242-3.4141l-10.242-13.652h221.87zm44.375-47.785c4.7148 0 8.5352 3.8203 8.5352 8.5312 0 4.7148-3.8203 8.5352-8.5352 8.5352h-290.13c-4.7148 0-8.5352-3.8203-8.5352-8.5352 0-4.7109 3.8203-8.5312 8.5352-8.5312zm-44.543-55.34c-1.0625 10.508-5.9961 20.246-13.84 27.32-7.8438 7.0703-18.035 10.977-28.598 10.953h-116.16c-10.562 0.023437-20.758-3.8789-28.598-10.953-7.8438-7.0742-12.777-16.812-13.84-27.32l-18.898-182.74c-0.21875-2.3906 0.57422-4.7656 2.1836-6.5469 1.6133-1.7852 3.8945-2.8125 6.2969-2.8398h221.87c2.3984 0.054687 4.668 1.0859 6.2812 2.8633 1.6133 1.7734 2.4297 4.1328 2.25 6.5234zm87.211-89.727c-0.015625 11.309-4.5156 22.156-12.512 30.152-8 8-18.844 12.5-30.156 12.512h-22.52l1.7656-17.066h20.754c6.7891 0 13.301-2.6953 18.102-7.4961s7.5-11.312 7.5-18.102v-42.668c0-4.5273-1.8008-8.8672-5-12.066-3.1992-3.2031-7.543-5-12.066-5h-20.48l1.7578-17.066h27.254c6.7891 0 13.301 2.6953 18.102 7.4961s7.5 11.312 7.5 18.102zm-61.652 8.5352 5.3008-51.199 22.219-0.003906v42.668c0 2.2617-0.90234 4.4336-2.5 6.0312-1.6016 1.6016-3.7734 2.5-6.0352 2.5zm78.719-13.152v-46.586c-0.015625-11.309-4.5156-22.156-12.512-30.152-8-8-18.844-12.5-30.156-12.512h-25.734c0.066406-6.7852-2.5938-13.316-7.3789-18.129-4.7852-4.8086-11.301-7.5-18.086-7.4727h-221.87c-7.2031 0.13281-14.031 3.2461-18.855 8.5977-4.8281 5.3477-7.2188 12.461-6.6094 19.641l11.199 108.3h-36.934c-25.375-0.042969-49.094-12.613-63.367-33.594-14.277-20.977-17.27-47.652-7.9961-71.273 9.2695-23.617 29.613-41.133 54.348-46.797 6.7773-1.5898 11.086-8.2539 9.7539-15.086-1.2344-6.0586-1.5586-12.27-0.96484-18.426 1.293-13.328 7.043-25.832 16.32-35.492 9.2773-9.6562 21.543-15.902 34.812-17.73 10.578-1.4062 21.344-0.019532 31.223 4.0312 6.0312 2.2969 12.832-0.22656 15.906-5.8984 15.129-28.074 41.59-48.293 72.652-55.516s63.73-0.75391 89.691 17.766c25.965 18.516 42.719 47.297 46.004 79.016 0.71875 6.2969 5.9375 11.121 12.273 11.344 25.496 0.89844 49.527 12.152 66.539 31.172 17.012 19.016 25.531 44.145 23.594 69.586-1.9336 25.441-14.164 48.992-33.855 65.215z"/>
  <path d="m219.37 275.57c-3.332-3.332-8.7344-3.332-12.066 0l-25.602 25.602c-3.332 3.332-3.332 8.7344 0 12.066l25.602 25.602v-0.003907c3.3477 3.2344 8.6719 3.1875 11.961-0.10156 3.293-3.293 3.3398-8.6172 0.10547-11.965l-19.566-19.566 19.566-19.566c3.332-3.332 3.332-8.7344 0-12.066z"/>
  <path d="m304.7 275.57c-3.3477-3.2344-8.6719-3.1875-11.961 0.10547-3.293 3.2891-3.3398 8.6133-0.10547 11.961l19.566 19.566-19.566 19.566c-1.6445 1.5898-2.5859 3.7773-2.6055 6.0664-0.019532 2.2891 0.88281 4.4883 2.5 6.1055 1.6172 1.6211 3.8203 2.5195 6.1094 2.5 2.2891-0.019531 4.4727-0.95703 6.0625-2.6055l25.602-25.602v0.003906c3.332-3.332 3.332-8.7344 0-12.066z"/>
  <path d="m267.23 273.51c-4.4688-1.4883-9.293 0.92578-10.785 5.3906l-17.066 51.199c-1.4922 4.4805 0.92969 9.3164 5.4102 10.805 4.4766 1.4883 9.3125-0.93359 10.801-5.4102l17.066-51.199c0.71094-2.1484 0.53906-4.4961-0.47656-6.5195-1.0195-2.0234-2.8008-3.5586-4.9492-4.2656z"/>
 </g>
</svg>
