<svg width="1200pt" height="1200pt" version="1.1" viewBox="0 0 1200 1200" xmlns="http://www.w3.org/2000/svg">
 <g>
  <path d="m849.95 1200h-824.3c-14.16 0-25.641-11.48-25.641-25.641v-993.59c0-14.16 11.48-25.641 25.641-25.641h669.05v51.281h-643.41v942.31h773.02v-594.54h51.281l0.003907 620.18c0 14.16-11.48 25.641-25.641 25.641z"/>
  <path d="m153.85 815.38h435.9v51.281h-435.9z"/>
  <path d="m153.85 969.23h435.9v76.922h-435.9z"/>
  <path d="m1109.8 322.93-26.172-2.9492c91.051-70.777 129.78-183 112.21-295.96-1.543-9.9102-9.2305-17.707-19.078-19.348-110.44-18.383-223.45 17.504-294.05 107.09l-1.4453-18.855c-1.375-18.004-23.281-27.402-37.199-16.625-94.988 73.578-186 250.54-124.93 369.75l-202.29 202.29c-9.2695 9.2695-9.957 24.555-1.5234 34.602 9.543 11.363 27.289 12.156 37.789 1.6602l376.18-376.18c10.012-7.7148 24.422-7.0039 33.598 2.168 9.9688 9.9688 9.9688 26.133 0 36.105l-154.5 154.5c118.34 13.801 246.46-47.277 317.27-141.09 10.402-13.789 1.6172-35.184-15.859-37.152z"/>
 </g>
</svg>
