<svg width="512pt" height="512pt" version="1.1" viewBox="0 0 512 512" xmlns="http://www.w3.org/2000/svg">
 <g>
  <path d="m379.54 121.67c-0.94531 0.10938-1.8203 0.55859-2.4609 1.2656-21.578 24.09-33.367 29.094-45.73 33.348-10.562 3.6367-23.852 10.25-40.195 23.172l0.74219-16.566h0.003906c0.035157-1.0781-0.37891-2.125-1.1445-2.8906-0.76172-0.76172-1.8086-1.1758-2.8906-1.1406-27.824 0.88281-48.117 12.199-62.535 26.199-11.562 11.23-17.367 23.215-22.734 34.004l-3.2891-17.371c-0.25781-1.3477-1.1992-2.457-2.4844-2.9297-1.2852-0.47266-2.7227-0.24219-3.793 0.61328-37.613 30.887-49.113 59.527-50.066 83.133-0.92578 22.93 7.5938 40.508 9.875 50.242-10.859 15.145-20.68 31.059-30.234 48.605v0.003907c-0.89453 1.6289-0.51953 3.6602 0.89844 4.8594 1.418 1.2031 3.4844 1.2383 4.9414 0.089844 10.531-8.4766 19.082-18.816 28.512-26.766 9.3359-7.8711 19.188-13.492 33.195-13.602 46.191 6.1602 91.129-12.465 130.74-69.203v-0.003906c0.70703-0.98828 0.91406-2.25 0.55859-3.4102-0.35547-1.1641-1.2305-2.0938-2.3672-2.5195l-13.93-5.1016c31.871-4.3281 56.93-14.711 70.602-35.508 15.781-24.004 18.215-58.871 8-105.54-0.33203-1.3984-1.4023-2.5039-2.793-2.875-0.46094-0.12891-0.94141-0.17188-1.418-0.12891zm-108.88 79.602c-5.5195 8.25-5.6836 8.2109-7.7148 14.277-1.668 4.9648-1.1406 9.0234-3.6836 18.418 36.996-25.727 70.133-33.539 71.277-29.512 0.88281 3.0898-42.859 19.547-82.152 53.402-11.07 9.5391-21.48 19.363-30.844 28.531 6.6523 0 10.691 0.95703 14.344 0.76172 12.898-0.67969 15.086-3.8594 19.879-5.1445 2.8398 2.8438-9.2305 14.219-29.512 13.754-0.37891-0.007812-0.76562-0.007812-1.1367-0.023437-6.7656-0.050781-12.605 1.0391-16.152 4.207-17.707 15.848-29.094 28.934-30.539 27.77-1.3477-1.0859 21.887-41.582 65.938-79.188 2.8711-2.4492 8.6328-7.0195 8.6328-7.0195 4.168-9.7578 3.0312-12.734 4.6445-18.746 2.4883-9.2969 6.3633-16.242 17.023-21.492z"/>
  <path d="m376.77 370.21c-0.86719-0.64062-4.7812-0.5-9.3789-1.7656-3.2773-0.87891-5.3125-1.8047-9.8477-3.6445-4.4023-1.8516-18.543-8.3242-28.348-11.789-9.6875-3.5977-23.863-7.418-42.219-7.9297-19.457 0.14453-36.07 4.3633-47.598 10.02-1.1484 0.5625-2.2383 1.1367-3.2695 1.7188-28.527 14.414-51.379 22.367-78.254 25.977-9.9922 1.3906-17.605 1.8281-23.711 2.0898-2.9062 0.125-5.5039 0.22656-7.1328 0.34375-0.91016 0.058594-1.6484 0.14062-2.1914 0.23438-0.61719 0.11328-1 0.24609-1.1523 0.42969-0.15625 0.1875-0.058593 0.40625 0.29688 0.67187 0.32812 0.23438 0.86719 0.49219 1.6367 0.76563 1.5156 0.53516 3.9102 1.1172 7.2109 1.6367 6.418 1 16.195 1.7344 28.527 1.125 32.176-1.6875 65.598-10.469 94.941-26.004 0.88281-0.41016 1.7773-0.81641 2.6797-1.2188 9.082-4.0352 18.512-7.2188 27.738-6.9414 9.2852-0.375 20.207 2.2617 29.715 4.6875 11.91 3.2227 22.664 6.9922 32.262 9.3477 5.5195 1.4023 10.613 2.2969 15.594 2.6211 11.434 0.86719 12.543-2.332 12.496-2.3711z"/>
 </g>
</svg>
