<svg
  xmlns="http://www.w3.org/2000/svg"
  width="512pt"
  height="512pt"
  viewBox="0 0 512 512"
>
  <path d="m80 408v24h98.398v-24zm0 0v24h98.398v-24zm300.8-144c-4 65.602-58.398 117.6-124.8 117.6-66.398 0-120.8-52-124.8-117.6h-91.199v166.4c0 23.199 18.398 41.602 41.602 41.602h349.6c22.398 0 41.602-18.398 41.602-41.602l-0.003907-166.4zm-186.4 176c0 4-4 8-8 8h-114.4c-4 0-8-4-8-8v-40c0-4 4-8 8-8h114.4c4 0 8 4 8 8zm-114.4-8h98.398v-24h-98.398zm0-24v24h98.398v-24zm0 0v24h98.398v-24zm-40-326.4v166.4h33.602v-207.2c-19.203 4-33.602 20.801-33.602 40.801zm216 104.8c-38.398 0-69.602 31.199-69.602 69.602 0 38.398 31.199 69.602 69.602 69.602 38.398 0 69.602-31.199 69.602-69.602 0-38.398-31.203-69.602-69.602-69.602zm0 0c-38.398 0-69.602 31.199-69.602 69.602 0 38.398 31.199 69.602 69.602 69.602 38.398 0 69.602-31.199 69.602-69.602 0-38.398-31.203-69.602-69.602-69.602zm0-40c-60 0-109.6 48.801-109.6 109.6 0 60 48.801 109.6 109.6 109.6s109.6-49.602 109.6-109.6-49.602-109.6-109.6-109.6zm0 195.2c-47.199 0-85.602-38.398-85.602-85.602 0-47.199 38.402-85.602 85.602-85.602s85.602 38.402 85.602 85.602-38.402 85.602-85.602 85.602zm0-155.2c-38.398 0-69.602 31.199-69.602 69.602 0 38.398 31.199 69.602 69.602 69.602 38.398 0 69.602-31.199 69.602-69.602 0-38.398-31.203-69.602-69.602-69.602zm-117.6-146.4v172c7.1992-19.199 18.398-36 33.602-48.801v-123.2zm-48.797 0v208h33.602l-0.003906-208zm340.8 0h-242.4v111.2c20-12.801 43.199-20 68-20 66.398 0 120.8 52 124.8 117.6h91.199v-167.2c0-23.203-18.398-41.602-41.602-41.602zm-19.199 97.602c-20 0-36-16-36-36s16-36 36-36 36 16 36 36c0 19.199-16 36-36 36zm0-56.801c-11.199 0-20 8.8008-20 20s8.8008 20 20 20 20-8.8008 20-20-8.8008-20-20-20z" />
</svg>
