<svg width="1200pt" height="1200pt" version="1.1" viewBox="0 0 1200 1200" xmlns="http://www.w3.org/2000/svg">
 <g>
  <path d="m281.25 243.75h18.75c6.6992 0 12.887-3.5742 16.238-9.375 3.3477-5.8008 3.3477-12.949 0-18.75-3.3516-5.8008-9.5391-9.375-16.238-9.375h-18.75c-6.6992 0-12.887 3.5742-16.238 9.375-3.3477 5.8008-3.3477 12.949 0 18.75 3.3516 5.8008 9.5391 9.375 16.238 9.375z"/>
  <path d="m1125 922.21v-622.21c-0.027344-24.855-9.9141-48.684-27.492-66.258-17.574-17.578-41.402-27.465-66.258-27.492h-325.6c-22.152-53.059-53.336-101.87-92.164-144.28-3.6094-3.5156-8.4453-5.4805-13.484-5.4805s-9.875 1.9648-13.484 5.4805c-38.828 42.406-70.012 91.219-92.164 144.28h-119.35c-6.6992 0-12.887 3.5742-16.238 9.375-3.3477 5.8008-3.3477 12.949 0 18.75 3.3516 5.8008 9.5391 9.375 16.238 9.375h106.45c-3.582 12.324-6.4375 24.844-8.5547 37.5h-304.14c-4.9727 0-9.7422 1.9766-13.258 5.4922-3.5156 3.5156-5.4922 8.2852-5.4922 13.258v562.5c0 4.9727 1.9766 9.7422 5.4922 13.258 3.5156 3.5156 8.2852 5.4922 13.258 5.4922h862.5c4.9727 0 9.7422-1.9766 13.258-5.4922 3.5156-3.5156 5.4922-8.2852 5.4922-13.258v-562.5c0-4.9727-1.9766-9.7422-5.4922-13.258-3.5156-3.5156-8.2852-5.4922-13.258-5.4922h-304.14c-2.1172-12.656-4.9727-25.176-8.5547-37.5h312.7c14.914 0.015625 29.211 5.9492 39.758 16.492 10.543 10.547 16.477 24.844 16.492 39.758v618.75h-356.25c-4.9727 0-9.7422 1.9766-13.258 5.4922-3.5156 3.5156-5.4922 8.2852-5.4922 13.258v37.5h-225v-37.5c0-4.9727-1.9766-9.7422-5.4922-13.258-3.5156-3.5156-8.2852-5.4922-13.258-5.4922h-356.25v-618.75c0.015625-14.914 5.9492-29.211 16.492-39.758 10.547-10.543 24.844-16.477 39.758-16.492h56.25c6.6992 0 12.887-3.5742 16.238-9.375 3.3477-5.8008 3.3477-12.949 0-18.75-3.3516-5.8008-9.5391-9.375-16.238-9.375h-56.25c-24.855 0.027344-48.684 9.9141-66.258 27.492-17.578 17.574-27.465 41.402-27.492 66.258v622.21c-10.938 3.8516-20.41 10.992-27.125 20.445s-10.34 20.754-10.375 32.348v37.5c0.039062 34.797 13.879 68.16 38.484 92.766s57.969 38.445 92.766 38.484h862.5c34.797-0.039062 68.16-13.879 92.766-38.484s38.445-57.969 38.484-92.766v-37.5c-0.035156-11.594-3.6602-22.895-10.375-32.348s-16.188-16.594-27.125-20.445zm-620.17-340.96h-109.22c4.3281-20.969 15.695-39.828 32.215-53.449 16.516-13.621 37.195-21.188 58.605-21.445 4.4844 25.34 10.629 50.359 18.398 74.895zm33.297-18.75h123.75c-3.6055 12.969-8.5312 25.535-14.703 37.5h-94.34c-6.1719-11.965-11.102-24.531-14.707-37.5zm175.44-56.156c21.41 0.25781 42.086 7.8281 58.602 21.453 16.512 13.625 27.875 32.484 32.195 53.453h-109.19c7.7695-24.539 13.914-49.559 18.398-74.906zm-113.57-402.8c28.82 35.082 93.75 125.16 93.75 224.73v-0.003907c-0.91797 66.152-8.3711 132.05-22.258 196.73h-142.98c-13.887-64.684-21.34-130.58-22.258-196.73 0-99.57 64.93-189.65 93.75-224.73zm412.5 215.21v525h-825v-525h281.71c-0.11328 3.1875-0.45703 6.3125-0.45703 9.5195 0.68359 47.148 4.5273 94.199 11.5 140.83-33.488 1.8242-65.004 16.406-88.07 40.754-23.062 24.348-35.922 56.605-35.93 90.145 0 4.9727 1.9766 9.7422 5.4922 13.258 3.5156 3.5156 8.2852 5.4922 13.258 5.4922h145.45c2.1758 3.9648 4.6328 7.7695 7.3477 11.391 3.5469 4.6367 9.0547 7.3594 14.895 7.3594h114.62c5.8398 0 11.348-2.7227 14.895-7.3594 2.7148-3.6211 5.1719-7.4258 7.3477-11.391h145.45c4.9727 0 9.7422-1.9766 13.258-5.4922 3.5156-3.5156 5.4922-8.2852 5.4922-13.258-0.054688-33.52-12.934-65.75-35.988-90.086-23.055-24.332-54.543-38.926-88.012-40.789 6.9727-46.641 10.816-93.699 11.5-140.86 0-3.2109-0.34375-6.3359-0.45703-9.5195zm112.5 693.75c-0.027344 24.855-9.9141 48.684-27.492 66.258-17.574 17.578-41.402 27.465-66.258 27.492h-862.5c-24.855-0.027344-48.684-9.9141-66.258-27.492-17.578-17.574-27.465-41.402-27.492-66.258v-37.5c0.007812-4.9727 1.9844-9.7344 5.5-13.25s8.2773-5.4922 13.25-5.5h356.25v37.5c0 4.9727 1.9766 9.7422 5.4922 13.258 3.5156 3.5156 8.2852 5.4922 13.258 5.4922h262.5c4.9727 0 9.7422-1.9766 13.258-5.4922 3.5156-3.5156 5.4922-8.2852 5.4922-13.258v-37.5h356.25c4.9727 0.007812 9.7344 1.9844 13.25 5.5s5.4922 8.2773 5.5 13.25z"/>
  <path d="m600 646.88c-15.883 1.0742-30.703 8.3711-41.234 20.309s-15.93 27.547-15.016 43.441c0 28.676 33.527 85.027 40.246 96.031 3.4062 5.5742 9.4688 8.9766 16.004 8.9766s12.598-3.4023 16.004-8.9766c6.7188-11.008 40.246-67.359 40.246-96.031 0.91406-15.895-4.4844-31.504-15.016-43.441s-25.352-19.234-41.234-20.309zm0 111.75c-8.8359-14.867-15.172-31.082-18.75-48 0-14.227 8.5859-26.25 18.75-26.25s18.75 12.02 18.75 26.25c-3.5781 16.918-9.9141 33.133-18.75 48z"/>
 </g>
</svg>
