<?xml version="1.0" encoding="UTF-8"?>
<svg width="512pt" height="512pt" version="1.1" viewBox="0 0 512 512" xmlns="http://www.w3.org/2000/svg">
 <g>
  <path d="m80 448h16v16h-16z"/>
  <path d="m88 192h120c2.1211 0 4.1562-0.84375 5.6562-2.3438s2.3438-3.5352 2.3438-5.6562v-128c0-2.1211-0.84375-4.1562-2.3438-5.6562s-3.5352-2.3438-5.6562-2.3438h-120c-4.418 0-8 3.582-8 8v128c0 2.1211 0.84375 4.1562 2.3438 5.6562s3.5352 2.3438 5.6562 2.3438zm72.801-80.48c-2.7891 4.3984-7.6328 7.0664-12.84 7.0664-5.207 0-10.055-2.668-12.84-7.0664-1.9961-3.0898-2.8086-6.7969-2.2891-10.441 0.51953-3.6406 2.3359-6.9727 5.1133-9.3828 2.7812-2.4102 6.3359-3.7383 10.016-3.7383 3.6797 0 7.2344 1.3281 10.012 3.7383 2.7773 2.4102 4.5938 5.7422 5.1133 9.3828 0.51953 3.6445-0.29297 7.3516-2.2852 10.441zm-24.801 23.039h24c4.2422 0 8.3125 1.6875 11.312 4.6875s4.6875 7.0703 4.6875 11.312v24h-56v-24c0-4.2422 1.6875-8.3125 4.6875-11.312s7.0703-4.6875 11.312-4.6875zm-40-70.559h104v112h-8v-25.441c-0.015625-6.1211-1.7852-12.113-5.1055-17.262-3.3164-5.1484-8.043-9.2344-13.613-11.777l0.96094-1.2812h-0.003907c4.0859-6.3281 5.75-13.914 4.6875-21.371-1.0586-7.457-4.7773-14.281-10.465-19.219-5.6914-4.9336-12.969-7.6523-20.5-7.6523s-14.812 2.7188-20.5 7.6523c-5.6914 4.9375-9.4062 11.762-10.469 19.219-1.0625 7.457 0.60156 15.043 4.6875 21.371l1.0391 1.3594v0.003906c-5.5586 2.5352-10.277 6.6094-13.594 11.742s-5.0938 11.105-5.125 17.215v25.441h-8z"/>
  <path d="m232 48h72v16h-72z"/>
  <path d="m232 80h120v16h-120z"/>
  <path d="m232 112h48v16h-48z"/>
  <path d="m232 144h160v16h-160z"/>
  <path d="m232 176h160v16h-160z"/>
  <path d="m112 448h160v16h-160z"/>
  <path d="m112 416h256v16h-256z"/>
  <path d="m80 416h16v16h-16z"/>
  <path d="m112 248h120v16h-120z"/>
  <path d="m80 248h16v16h-16z"/>
  <path d="m112 344h72v16h-72z"/>
  <path d="m80 344h16v16h-16z"/>
  <path d="m112 280h280v16h-280z"/>
  <path d="m112 312h208v16h-208z"/>
  <path d="m80 280h16v16h-16z"/>
  <path d="m80 384h104v16h-104z"/>
  <path d="m80 216h104v16h-104z"/>
  <path d="m456 32h-32v-8c0-2.1211-0.84375-4.1562-2.3438-5.6562s-3.5352-2.3438-5.6562-2.3438h-360c-4.418 0-8 3.582-8 8v464c0 2.1211 0.84375 4.1562 2.3438 5.6562s3.5352 2.3438 5.6562 2.3438h360c2.1211 0 4.1562-0.84375 5.6562-2.3438s2.3438-3.5352 2.3438-5.6562v-8h32c2.1211 0 4.1562-0.84375 5.6562-2.3438s2.3438-3.5352 2.3438-5.6562v-432c0-2.1211-0.84375-4.1562-2.3438-5.6562s-3.5352-2.3438-5.6562-2.3438zm-48 448h-344v-448h344zm40-16h-24v-416h24z"/>
 </g>
</svg>
