<svg
  xmlns="http://www.w3.org/2000/svg"
  width="512pt"
  height="512pt"
  viewBox="0 0 512 512"
  >
  <path d="M363.7 204.8V53.1c0-18.8-15.3-34.1-34.1-34.1H44.8C26 19 10.7 34.3 10.7 53.1v151.7c0 18.8 15.3 34.1 34.1 34.1h11.4c1.8 0 3.3 1.2 3.7 2.9 6.3 35.8 29.8 46.6 34.8 48.5.9.5 1.9.7 2.9.7.3 0 .6 0 .9-.1 2.6-.4 4.7-2.4 5.3-5 .6-2.8 1-5.6 1.2-8.4 1.8-19.6 5.7-38.7 30.4-38.7h194.3c18.7.1 34-15.2 34-34zm-228.3 22.1c-37.3 0-40.9 33.9-42.3 49-6.9-4.6-17.6-15-21.3-36.2-1.4-7.5-7.9-12.9-15.5-12.8H44.8c-12.2 0-22.1-9.9-22.1-22.1V53.1c0-12.2 9.9-22.1 22.1-22.1h284.8c12.2 0 22.1 9.9 22.1 22.1v151.7c0 12.2-9.9 22.1-22.1 22.1H135.4z" />
  <path d="M322.6 144.2h-72c-3.3 0-6 2.7-6 6s2.7 6 6 6h72c3.3 0 6-2.7 6-6s-2.7-6-6-6zM103.1 144.2c-3.3 0-6 2.7-6 6s2.7 6 6 6h113.5c3.3 0 6-2.7 6-6s-2.7-6-6-6H103.1zM51.8 156.2h24.8c3.3 0 6-2.7 6-6s-2.7-6-6-6H51.8c-3.3 0-6 2.7-6 6s2.7 6 6 6zM303.8 121.1h18.8c3.3 0 6-2.7 6-6s-2.7-6-6-6h-18.8c-3.3 0-6 2.7-6 6s2.7 6 6 6zM277.5 121.1c3.3 0 6-2.7 6-6s-2.7-6-6-6H246c-3.3 0-6 2.7-6 6s2.7 6 6 6h31.5zM51.8 121.1h167.6c3.3 0 6-2.7 6-6s-2.7-6-6-6H51.8c-3.3 0-6 2.7-6 6s2.7 6 6 6zM307.4 78.9h15.2c3.3 0 6-2.7 6-6s-2.7-6-6-6h-15.2c-3.3 0-6 2.7-6 6s2.7 6 6 6zM215.6 78.9h65.1c3.3 0 6-2.7 6-6s-2.7-6-6-6h-65.1c-3.3 0-6 2.7-6 6s2.7 6 6 6zM51.8 78.9H189c3.3 0 6-2.7 6-6s-2.7-6-6-6H51.8c-3.3 0-6 2.7-6 6s2.7 6 6 6zM252.4 179.4h-2.9c-3.3 0-6 2.7-6 6s2.7 6 6 6h2.9c3.3 0 6-2.7 6-6s-2.7-6-6-6zM225.1 179.4h-52c-3.3 0-6 2.7-6 6s2.7 6 6 6h52c3.3 0 6-2.7 6-6s-2.7-6-6-6zM139.9 179.4H51.8c-3.3 0-6 2.7-6 6s2.7 6 6 6h88.1c3.3 0 6-2.7 6-6s-2.7-6-6-6zM501 391.8c-1.8-17.8-11.5-33.9-26.5-43.7v-42c15.5-2.9 26.8-16.4 26.8-32.2 0-18.1-14.7-32.8-32.8-32.8-18.1 0-32.8 14.7-32.8 32.8 0 15.8 11.3 29.3 26.8 32.2V342c-4.8-1.8-9.7-2.9-14.8-3.4 0-19.9-16.1-36-36-36h-50.3v-19.4c0-8-6.5-14.5-14.5-14.5h-42.4v-18.9c0-3.3-2.7-6-6-6s-6 2.7-6 6v18.9h-41.7c-8 0-14.5 6.5-14.5 14.5v19.4H186c-19.9 0-36 16.1-36 36V457c0 19.9 16.1 36 36 36h225.7c19.9 0 36-16.1 36-36 32.8-3.3 56.6-32.5 53.3-65.2zM248.4 283.1c0-1.4 1.1-2.5 2.5-2.5H347c1.4 0 2.5 1.1 2.5 2.5v19.4H248.4v-19.4zM435.8 457c0 13.2-10.8 24-24 24H186.1c-13.2 0-24-10.8-24-24V338.5c0-13.2 10.8-24 24-24h225.7c13.2 0 24 10.8 24 24V457zm12-183.2c0-11.5 9.3-20.8 20.8-20.8s20.8 9.3 20.8 20.8-9.3 20.8-20.8 20.8c-11.5-.1-20.8-9.3-20.8-20.8zm0 171.1v-94.4c23.7 3 41.5 23.2 41.6 47.2-.1 24-17.9 44.2-41.6 47.2z" />
  <path d="M225 366.3h-5.9c-11 0-20 9-20 20v17.1c0 3.3 2.7 6 6 6H239c3.3 0 6-2.7 6-6v-17.1c0-11-9-20-20-20zm8 31.1h-21.9v-11.1c0-4.4 3.6-8 8-8h5.9c4.4 0 8 3.6 8 8v11.1zM378.8 366.3h-5.9c-11 0-20 9-20 20v17.1c0 3.3 2.7 6 6 6h33.9c3.3 0 6-2.7 6-6v-17.1c0-11-9-20-20-20zm-13.9 31.1v-11.1c0-4.4 3.6-8 8-8h5.9c4.4 0 8 3.6 8 8v11.1h-21.9zM332.9 424.5H265c-3.3 0-6 2.7-6 6v5.9c0 18.8 15.2 34 34 34h11.8c18.8 0 34-15.2 34-34v-5.9c.1-3.3-2.6-6-5.9-6zm-28 33.9H293c-12.1 0-21.9-9.8-22-21.9h55.8c0 12.1-9.8 21.9-21.9 21.9z" />
</svg>
