<svg
  xmlns="http://www.w3.org/2000/svg"
  width="100%"
  height="100%"
  viewBox="0 0 86 44"
>
  <path d="M3.39 11.61c.37 0 .67-.3.67-.67a.674.674 0 10-.67.67zM3.39 20.92c.37 0 .67-.3.67-.68 0-.38-.3-.67-.67-.67-.38 0-.68.29-.68.67 0 .38.3.68.68.68zM3.39 14.71c.37 0 .67-.3.67-.67a.674.674 0 10-.67.67zM3.39 17.82c.37 0 .67-.31.67-.68 0-.38-.3-.67-.67-.67-.38 0-.68.29-.68.67 0 .37.3.68.68.68zM3.39 8.51c.37 0 .67-.3.67-.67a.674.674 0 10-.67.67zM7.35 14.71c.37 0 .67-.3.67-.67a.674.674 0 10-.67.67zM7.35 8.51c.22 0 .41-.12.53-.28a.66.66 0 00.14-.39.67.67 0 00-1.34-.04c0 .02-.01.03-.01.05 0 .36.3.66.68.66zM7.35 11.61c.37 0 .67-.3.67-.67a.674.674 0 10-.67.67zM7.35 17.82c.37 0 .67-.31.67-.68 0-.38-.3-.67-.67-.67-.38 0-.68.29-.68.67 0 .37.3.68.68.68zM7.26 20.9c.03 0 .06.02.1.02.23 0 .43-.13.55-.31a.68.68 0 00.12-.37c0-.38-.3-.67-.67-.67-.38 0-.68.29-.68.67-.01.34.25.61.58.66zM11.32 17.82c.37 0 .67-.31.67-.68 0-.38-.3-.67-.67-.67-.38 0-.68.29-.68.67 0 .37.3.68.68.68zM11.32 11.61c.37 0 .67-.3.67-.67a.674.674 0 10-.67.67zM11.32 14.71c.37 0 .67-.3.67-.67a.674.674 0 10-.67.67zM15.28 14.71c.37 0 .67-.3.67-.67a.674.674 0 10-.67.67zM15.28 11.61c.31 0 .56-.22.64-.51.01-.05.03-.1.03-.16 0-.38-.3-.68-.67-.68-.27 0-.5.16-.61.39-.04.09-.07.18-.07.29 0 .37.3.67.68.67zM14.71 17.48c.12.19.32.33.57.33.37 0 .67-.31.67-.68 0-.07-.02-.14-.04-.2a.666.666 0 00-.63-.47c-.38 0-.68.29-.68.67 0 .14.05.25.11.35zM19.24 14.71c.37 0 .67-.3.67-.67a.674.674 0 10-.67.67zM1.39 10.05c.37 0 .67-.3.67-.67a.674.674 0 10-.67.67zM1.39 13.15c.37 0 .67-.3.67-.67a.674.674 0 10-.67.67zM1.39 22.46c.37 0 .67-.3.67-.68 0-.37-.3-.67-.67-.67a.674.674 0 100 1.35zM1.39 19.35c.37 0 .67-.3.67-.67a.674.674 0 10-.67.67zM1.39 16.25c.37 0 .67-.3.67-.67a.674.674 0 10-.67.67zM5.35 10.05c.37 0 .67-.3.67-.67a.674.674 0 10-.67.67zM5.35 19.35c.37 0 .67-.3.67-.67a.674.674 0 10-.67.67zM5.35 13.15c.37 0 .67-.3.67-.67a.674.674 0 10-.67.67zM4.73 22.06a.671.671 0 101.22-.56.672.672 0 00-1.28.29c0 .09.03.18.06.27zM5.35 16.25c.37 0 .67-.3.67-.67a.674.674 0 10-.67.67zM9.32 13.15c.37 0 .67-.3.67-.67a.674.674 0 10-.67.67zM9.32 19.35c.37 0 .67-.3.67-.67a.674.674 0 10-.67.67zM9.32 16.25c.37 0 .67-.3.67-.67a.674.674 0 10-.67.67zM9.32 10.05c.37 0 .67-.3.67-.67a.69.69 0 00-.19-.48.65.65 0 00-.48-.21c-.02 0-.04.01-.06.01-.35.03-.62.31-.62.67 0 .38.3.68.68.68zM13.28 16.25c.37 0 .67-.3.67-.67a.674.674 0 10-.67.67zM13.28 13.15c.37 0 .67-.3.67-.67a.674.674 0 10-.67.67zM17.24 16.25c.37 0 .67-.3.67-.67a.674.674 0 10-.67.67zM17.24 13.15c.37 0 .67-.3.67-.67a.674.674 0 10-.67.67zM39.06 20.92c.37 0 .67-.3.67-.68 0-.38-.3-.67-.67-.67-.38 0-.68.29-.68.67 0 .38.3.68.68.68zM43.03 24.02c.37 0 .67-.3.67-.68 0-.37-.3-.67-.67-.67a.674.674 0 100 1.35zM46.99 24.02c.37 0 .67-.3.67-.68 0-.37-.3-.67-.67-.67a.674.674 0 100 1.35zM46.99 27.12c.37 0 .67-.3.67-.68 0-.37-.3-.67-.67-.67-.38 0-.68.3-.68.67 0 .37.3.68.68.68zM46.99 30.22a.6.6 0 00.41-.16l.21-.26a.672.672 0 00-.62-.93.674.674 0 100 1.35zM37.06 19.35c.29 0 .54-.2.63-.46.02-.07.04-.13.04-.21 0-.38-.3-.68-.67-.68-.29 0-.53.18-.63.44-.03.08-.05.16-.05.24 0 .37.31.67.68.67zM41.03 22.46c.37 0 .67-.3.67-.68 0-.37-.3-.67-.67-.67a.674.674 0 100 1.35zM44.99 25.56c.37 0 .67-.3.67-.68 0-.37-.3-.67-.67-.67a.674.674 0 100 1.35zM44.99 28.66c.37 0 .67-.3.67-.68 0-.37-.3-.67-.67-.67a.674.674 0 100 1.35zM44.99 22.46c.37 0 .67-.3.67-.68 0-.02-.01-.03-.01-.04a.667.667 0 00-1.15-.42c-.11.12-.19.28-.19.46 0 .38.3.68.68.68zM48.95 25.56c.37 0 .67-.3.67-.68 0-.37-.3-.67-.67-.67-.38 0-.68.3-.68.67 0 .38.31.68.68.68zM11.32 20.92c.37 0 .67-.3.67-.68 0-.38-.3-.67-.67-.67-.38 0-.68.29-.68.67 0 .38.3.68.68.68zM15.28 24.02c.37 0 .67-.3.67-.68 0-.37-.3-.67-.67-.67a.674.674 0 100 1.35zM15.28 20.92c.37 0 .67-.3.67-.68 0-.38-.3-.67-.67-.67-.38 0-.68.29-.68.67 0 .38.3.68.68.68zM19.24 24.02c.37 0 .67-.3.67-.68 0-.37-.3-.67-.67-.67a.674.674 0 100 1.35zM19.24 20.92c.37 0 .67-.3.67-.68 0-.38-.3-.67-.67-.67-.38 0-.68.29-.68.67 0 .38.3.68.68.68zM19.24 17.82c.37 0 .67-.31.67-.68 0-.38-.3-.67-.67-.67-.38 0-.68.29-.68.67 0 .37.3.68.68.68zM23.21 20.92c.38 0 .67-.3.67-.68 0-.38-.29-.67-.67-.67-.38 0-.68.29-.68.67 0 .38.3.68.68.68zM23.21 14.71c.38 0 .67-.3.67-.67 0-.03-.01-.06-.02-.1-.05-.33-.31-.58-.65-.58-.18 0-.34.07-.46.18-.1.09-.16.21-.19.34-.01.05-.03.1-.03.15 0 .38.3.68.68.68zM23.21 17.82c.38 0 .67-.31.67-.68 0-.38-.29-.67-.67-.67-.38 0-.68.29-.68.67 0 .37.3.68.68.68zM27.17 17.82c.37 0 .67-.31.67-.68 0-.38-.3-.67-.67-.67-.38 0-.68.29-.68.67 0 .37.3.68.68.68zM31.13 17.82v-1.34c-.05 0-.09.02-.14.03-.31.06-.53.31-.53.64 0 .35.3.67.67.67zM9.32 22.46c.37 0 .67-.3.67-.68 0-.37-.3-.67-.67-.67a.674.674 0 100 1.35zM13.28 22.46c.37 0 .67-.3.67-.68 0-.37-.3-.67-.67-.67a.674.674 0 100 1.35zM13.28 19.35a.67.67 0 00.2-1.31c-.07-.02-.13-.04-.2-.04a.668.668 0 00-.68.68c0 .37.3.67.68.67zM17.24 22.46c.37 0 .67-.3.67-.68 0-.37-.3-.67-.67-.67-.38 0-.68.3-.68.67 0 .38.31.68.68.68zM17.24 19.35c.37 0 .67-.3.67-.67a.674.674 0 10-.67.67zM21.21 22.46c.37 0 .67-.3.67-.68 0-.37-.3-.67-.67-.67a.674.674 0 100 1.35zM21.21 25.56c.37 0 .67-.3.67-.68 0-.37-.3-.67-.67-.67a.674.674 0 100 1.35zM21.21 19.35c.37 0 .67-.3.67-.67a.674.674 0 10-.67.67zM21.21 16.25c.37 0 .67-.3.67-.67a.674.674 0 10-.67.67zM25.17 19.35c.37 0 .67-.3.67-.67a.674.674 0 10-.67.67zM25.17 16.25c.37 0 .67-.3.67-.67a.674.674 0 10-.67.67zM62.84 13.36v1.35c.37 0 .67-.3.67-.67 0-.38-.3-.68-.67-.68zM62.84 19.57v1.35c.37 0 .67-.3.67-.68 0-.38-.3-.67-.67-.67zM62.84 16.47v1.35c.37 0 .67-.31.67-.68 0-.38-.3-.67-.67-.67zM66.81 16.47c-.38 0-.68.29-.68.67 0 .37.3.68.68.68.37 0 .67-.31.67-.68 0-.38-.3-.67-.67-.67zM66.81 19.57c-.38 0-.68.29-.68.67a.674.674 0 101.35 0c0-.38-.3-.67-.67-.67zM67.29 10.48a.663.663 0 00-.49-.22.69.69 0 00-.62.4.672.672 0 00.62.95c.37 0 .67-.3.67-.67a.596.596 0 00-.18-.46zM66.81 13.36a.674.674 0 100 1.35c.37 0 .67-.3.67-.67 0-.38-.3-.68-.67-.68zM66.81 22.67a.674.674 0 10.67.67c0-.37-.3-.67-.67-.67zM70.77 22.67a.674.674 0 10.67.67c0-.37-.3-.67-.67-.67zM70.77 16.47c-.38 0-.68.29-.68.67 0 .37.3.68.68.68.37 0 .67-.31.67-.68 0-.38-.3-.67-.67-.67zM70.77 19.57c-.38 0-.68.29-.68.67a.674.674 0 101.35 0c0-.38-.3-.67-.67-.67zM70.77 10.26a.674.674 0 100 1.35c.37 0 .67-.3.67-.67 0-.38-.3-.68-.67-.68zM70.77 13.36a.674.674 0 100 1.35c.37 0 .67-.3.67-.67 0-.38-.3-.68-.67-.68zM74.74 16.47c-.38 0-.68.29-.68.67 0 .37.3.68.68.68.37 0 .67-.31.67-.68a.676.676 0 00-.67-.67zM74.74 22.67a.674.674 0 10-.011 1.351.674.674 0 00.011-1.351zM74.74 19.57c-.38 0-.68.29-.68.67a.674.674 0 10.68-.67zM74.74 10.26a.674.674 0 100 1.35c.37 0 .67-.3.67-.67a.685.685 0 00-.67-.68zM74.74 13.36a.674.674 0 100 1.35c.37 0 .67-.3.67-.67a.685.685 0 00-.67-.68zM78.7 10.26a.674.674 0 100 1.35c.37 0 .67-.3.67-.67 0-.38-.3-.68-.67-.68zM78.7 16.47c-.38 0-.68.29-.68.67 0 .37.3.68.68.68.37 0 .67-.31.67-.68 0-.38-.3-.67-.67-.67zM78.7 13.36a.674.674 0 100 1.35c.37 0 .67-.3.67-.67 0-.38-.3-.68-.67-.68zM78.7 22.67a.674.674 0 10.67.67c0-.37-.3-.67-.67-.67zM78.7 19.57c-.38 0-.68.29-.68.67a.674.674 0 101.35 0c0-.38-.3-.67-.67-.67zM82.66 10.26a.674.674 0 100 1.35c.37 0 .67-.3.67-.67 0-.38-.3-.68-.67-.68zM82.66 22.67a.674.674 0 10.67.67c0-.37-.3-.67-.67-.67zM82.66 13.36a.674.674 0 100 1.35c.37 0 .67-.3.67-.67 0-.38-.3-.68-.67-.68zM82.66 19.57c-.38 0-.68.29-.68.67a.674.674 0 101.35 0c0-.38-.3-.67-.67-.67zM82.66 16.47c-.38 0-.68.29-.68.67 0 .37.3.68.68.68.37 0 .67-.31.67-.68 0-.38-.3-.67-.67-.67zM64.81 21.11a.674.674 0 10.67.67c0-.37-.3-.67-.67-.67zM64.81 11.8a.674.674 0 100 1.35c.37 0 .67-.3.67-.67 0-.37-.3-.68-.67-.68zM64.81 14.9a.674.674 0 100 1.35c.37 0 .67-.3.67-.67 0-.38-.3-.68-.67-.68zM64.81 18a.674.674 0 100 1.35c.37 0 .67-.3.67-.67 0-.38-.3-.68-.67-.68zM68.77 18a.674.674 0 100 1.35c.37 0 .67-.3.67-.67 0-.38-.3-.68-.67-.68zM68.77 21.11a.674.674 0 10.67.67c0-.37-.3-.67-.67-.67zM68.77 11.8a.674.674 0 100 1.35c.37 0 .67-.3.67-.67 0-.37-.3-.68-.67-.68zM68.77 14.9a.674.674 0 100 1.35c.37 0 .67-.3.67-.67 0-.38-.3-.68-.67-.68zM72.74 18a.674.674 0 100 1.35c.37 0 .67-.3.67-.67 0-.38-.31-.68-.67-.68zM72.74 21.11a.674.674 0 10-.011 1.351.674.674 0 00.011-1.351zM72.74 14.9a.674.674 0 100 1.35c.37 0 .67-.3.67-.67 0-.38-.31-.68-.67-.68zM72.74 11.8a.674.674 0 100 1.35c.37 0 .67-.3.67-.67 0-.37-.31-.68-.67-.68zM76.7 21.11a.674.674 0 10.67.67c0-.37-.3-.67-.67-.67zM76.7 18a.674.674 0 100 1.35c.37 0 .67-.3.67-.67 0-.38-.3-.68-.67-.68zM76.7 14.9a.674.674 0 100 1.35c.37 0 .67-.3.67-.67 0-.38-.3-.68-.67-.68zM77.1 8.85a.637.637 0 00-.4-.15c-.24 0-.43.12-.55.3-.07.11-.13.23-.13.38 0 .37.3.67.68.67.37 0 .67-.3.67-.67 0-.22-.11-.41-.27-.53zM76.7 11.8a.674.674 0 100 1.35c.37 0 .67-.3.67-.67 0-.37-.3-.68-.67-.68zM80.66 14.9a.674.674 0 100 1.35c.37 0 .67-.3.67-.67 0-.38-.3-.68-.67-.68zM80.66 8.7a.674.674 0 100 1.35c.37 0 .67-.3.67-.67 0-.37-.3-.68-.67-.68zM80.66 11.8a.674.674 0 100 1.35c.37 0 .67-.3.67-.67 0-.37-.3-.68-.67-.68zM80.66 21.11a.674.674 0 10.67.67c0-.37-.3-.67-.67-.67zM80.66 18a.674.674 0 100 1.35c.37 0 .67-.3.67-.67 0-.38-.3-.68-.67-.68zM84.63 18a.674.674 0 100 1.35c.37 0 .67-.3.67-.67 0-.38-.3-.68-.67-.68zM84.63 8.7a.674.674 0 100 1.35c.37 0 .67-.3.67-.67 0-.37-.3-.68-.67-.68zM84.63 11.8a.674.674 0 100 1.35c.37 0 .67-.3.67-.67 0-.37-.3-.68-.67-.68zM84.63 21.11a.674.674 0 10.67.67c0-.37-.3-.67-.67-.67zM84.63 14.9a.674.674 0 100 1.35c.37 0 .67-.3.67-.67 0-.38-.3-.68-.67-.68zM58.88 13.36a.674.674 0 100 1.35c.37 0 .67-.3.67-.67 0-.38-.3-.68-.67-.68zM58.88 16.47c-.38 0-.68.29-.68.67 0 .37.3.68.68.68.37 0 .67-.31.67-.68 0-.38-.3-.67-.67-.67zM62.84 11.22v-.96a.666.666 0 00-.55 1.05c.12.18.31.3.54.3v-.39h.01zM62.84 16.47c-.38 0-.67.29-.67.67 0 .37.29.68.67.68v-1.35zM62.84 13.36c-.38 0-.67.3-.67.68 0 .37.29.67.67.67v-1.35zM62.17 20.24c0 .38.29.68.67.68v-1.35c-.37 0-.67.29-.67.67zM56.88 14.9a.674.674 0 100 1.35c.37 0 .67-.3.67-.67 0-.38-.3-.68-.67-.68zM57.43 12.12a.656.656 0 00-.55-.32c-.32 0-.57.22-.65.51-.01.05-.03.11-.03.17 0 .37.3.67.68.67.37 0 .67-.3.67-.67 0-.13-.05-.26-.12-.36zM60.85 14.9a.674.674 0 100 1.35c.37 0 .67-.3.67-.67 0-.38-.31-.68-.67-.68zM60.85 11.8a.674.674 0 100 1.35c.37 0 .67-.3.67-.67 0-.37-.31-.68-.67-.68zM60.85 18a.674.674 0 100 1.35c.37 0 .67-.3.67-.67 0-.38-.31-.68-.67-.68zM31.8 4.74c0-.38-.3-.68-.67-.68v1.35c.37 0 .67-.3.67-.67zM31.13 8.51c.37 0 .67-.3.67-.67 0-.38-.3-.68-.67-.68v1.35zM31.13 11.61c.37 0 .67-.3.67-.67 0-.38-.3-.68-.67-.68v1.35zM31.13 14.71c.37 0 .67-.3.67-.67 0-.38-.3-.68-.67-.68v1.35zM31.13 16.54v1.27c.37 0 .67-.31.67-.68 0-.16-.06-.3-.15-.41a.649.649 0 00-.52-.26v.08zM35.1 17.82c.37 0 .67-.31.67-.68 0-.38-.3-.67-.67-.67-.38 0-.68.29-.68.67 0 .37.3.68.68.68zM39.06 17.82c.37 0 .67-.31.67-.68 0-.38-.3-.67-.67-.67-.38 0-.68.29-.68.67 0 .37.3.68.68.68zM43.03 17.82c.37 0 .67-.31.67-.68 0-.38-.3-.67-.67-.67-.38 0-.68.29-.68.67 0 .37.3.68.68.68zM42.46 20.6c.12.19.32.32.56.32.08 0 .14-.02.21-.04.26-.09.46-.34.46-.64 0-.38-.3-.67-.67-.67-.38 0-.68.29-.68.67.01.13.05.25.12.36zM46.99 20.92c.37 0 .67-.3.67-.68 0-.38-.3-.67-.67-.67-.38 0-.68.29-.68.67 0 .38.3.68.68.68zM46.99 17.82c.37 0 .67-.31.67-.68 0-.38-.3-.67-.67-.67-.38 0-.68.29-.68.67 0 .37.3.68.68.68zM50.28 23.4a.668.668 0 001.15.41.67.67 0 00-.48-1.14c-.38 0-.68.3-.68.67 0 .02.01.04.01.06zM50.95 20.92c.37 0 .67-.3.67-.68 0-.38-.3-.67-.67-.67-.38 0-.68.29-.68.67 0 .38.3.68.68.68zM50.95 17.82c.37 0 .67-.31.67-.68 0-.38-.3-.67-.67-.67-.38 0-.68.29-.68.67 0 .37.3.68.68.68zM54.67 20.87a.666.666 0 00.92-.63c0-.14-.05-.27-.13-.37a.634.634 0 00-.54-.29.666.666 0 00-.25 1.29zM33.1 6.95c.37 0 .67-.3.67-.67a.674.674 0 10-.67.67zM33.1 16.25c.37 0 .67-.3.67-.67a.674.674 0 10-.67.67zM33.1 13.15c.37 0 .67-.3.67-.67a.674.674 0 10-.67.67zM37.06 16.25c.37 0 .67-.3.67-.67a.674.674 0 10-.67.67zM41.03 16.25c.37 0 .67-.3.67-.67a.674.674 0 10-.67.67zM41.03 19.35c.37 0 .67-.3.67-.67a.674.674 0 10-.67.67zM44.99 16.25c.37 0 .67-.3.67-.67a.674.674 0 10-.67.67zM44.99 19.35c.37 0 .67-.3.67-.67a.674.674 0 10-.67.67zM48.95 19.35c.37 0 .67-.3.67-.67a.674.674 0 10-.67.67zM48.95 22.46c.37 0 .67-.3.67-.68 0-.37-.3-.67-.67-.67-.38 0-.68.3-.68.67 0 .38.31.68.68.68zM48.95 16.25c.37 0 .67-.3.67-.67a.674.674 0 10-.67.67zM52.92 22.46c.37 0 .67-.3.67-.68 0-.37-.3-.67-.67-.67a.674.674 0 100 1.35zM52.92 19.35c.37 0 .67-.3.67-.67a.674.674 0 10-.67.67zM11.32 8.51c.37 0 .67-.3.67-.67a.674.674 0 10-.67.67zM15.28 8.51c.37 0 .67-.3.67-.67a.674.674 0 10-.67.67zM19.24 11.61c.37 0 .67-.3.67-.67a.674.674 0 10-.67.67zM19.24 8.51c.37 0 .67-.3.67-.67a.674.674 0 10-.67.67zM23.21 8.51c.38 0 .67-.3.67-.67 0-.38-.29-.68-.67-.68a.674.674 0 100 1.35zM23.21 11.61c.38 0 .67-.3.67-.67 0-.38-.29-.68-.67-.68a.674.674 0 100 1.35zM27.17 8.51c.37 0 .67-.3.67-.67a.674.674 0 10-.67.67zM27.17 11.61c.37 0 .67-.3.67-.67a.674.674 0 10-.67.67zM27.17 14.71c.37 0 .67-.3.67-.67a.674.674 0 10-.67.67zM31.13 5.41V4.06c-.38 0-.67.3-.67.68 0 .37.3.67.67.67zM31.13 8.51V7.16c-.38 0-.67.3-.67.68 0 .37.3.67.67.67zM31.13 11.61v-1.35c-.38 0-.67.3-.67.68 0 .37.3.67.67.67zM31.13 14.71v-1.35c-.38 0-.67.3-.67.68 0 .37.3.67.67.67zM13.28 10.05c.37 0 .67-.3.67-.67a.674.674 0 10-.67.67zM17.24 10.05c.37 0 .67-.3.67-.67a.674.674 0 10-.67.67zM21.21 10.05c.37 0 .67-.3.67-.67a.674.674 0 10-.67.67zM20.6 12.78c.11.22.34.38.6.38a.686.686 0 00.67-.67.674.674 0 10-1.35 0c.01.1.04.2.08.29zM25.17 6.95c.37 0 .67-.3.67-.67a.674.674 0 10-.67.67zM25.17 10.05c.37 0 .67-.3.67-.67a.674.674 0 10-.67.67zM25.17 13.15c.37 0 .67-.3.67-.67a.674.674 0 10-.67.67zM29.14 10.05c.37 0 .67-.3.67-.67a.674.674 0 10-.67.67zM29.14 6.95c.37 0 .67-.3.67-.67a.674.674 0 10-.67.67zM28.46 15.59a.668.668 0 001.18.43c.1-.12.17-.26.17-.43 0-.38-.3-.68-.67-.68a.662.662 0 00-.68.68c0-.01 0-.01 0 0zM29.14 13.15c.37 0 .67-.3.67-.67a.674.674 0 10-.67.67zM50.95 27.12c.37 0 .67-.3.67-.68 0-.37-.3-.67-.67-.67-.07 0-.13.02-.19.04-.28.08-.48.32-.49.62v.01c0 .37.3.68.68.68zM54.92 30.22c.38 0 .67-.3.67-.67 0-.38-.29-.68-.67-.68a.674.674 0 100 1.35zM54.92 24.02c.38 0 .67-.3.67-.68 0-.37-.29-.67-.67-.67a.674.674 0 100 1.35zM59.2 27.02a.67.67 0 00-.32-1.26c-.03 0-.06.01-.1.02-.33.05-.58.32-.58.65 0 .38.3.68.68.68.12.01.22-.03.32-.09zM52.92 28.66c.37 0 .67-.3.67-.68 0-.37-.3-.67-.67-.67a.674.674 0 100 1.35zM56.88 25.56c.37 0 .67-.3.67-.68 0-.37-.3-.67-.67-.67a.674.674 0 100 1.35zM56.88 22.46c.29 0 .54-.2.63-.47.02-.07.04-.14.04-.21 0-.23-.12-.42-.29-.54a.623.623 0 00-.38-.13.674.674 0 100 1.35zM46.99 38.12c-.38 0-.68.3-.68.68a.674.674 0 101.35 0c0-.38-.3-.68-.67-.68zM51.62 35.7h-.01a.674.674 0 00-.66-.63c-.36 0-.64.28-.67.63h-.01c0 .37.3.67.68.67.37 0 .67-.31.67-.67zM44.99 36.56a.674.674 0 100 1.35c.37 0 .67-.3.67-.67 0-.38-.3-.68-.67-.68zM60.85 28.66c.37 0 .67-.3.67-.68 0-.37-.3-.67-.67-.67a.674.674 0 100 1.35zM25.17 27.31a.674.674 0 10.67.67c0-.37-.3-.67-.67-.67zM29.14 30.41a.674.674 0 10-.011 1.351.674.674 0 00.011-1.351zM35.1 31.97a.674.674 0 100 1.35c.37 0 .67-.3.67-.67 0-.38-.3-.68-.67-.68zM33.1 33.51a.674.674 0 10.67.67c0-.37-.3-.67-.67-.67zM37.73 31.08c0-.37-.3-.67-.67-.67a.674.674 0 10.67.67zM41.03 34.86c.37 0 .67-.3.67-.68 0-.37-.3-.67-.67-.67a.674.674 0 100 1.35zM39.06 38.12c-.38 0-.68.3-.68.68a.674.674 0 101.35 0c0-.38-.3-.68-.67-.68zM39.72 35.7s0-.01 0 0a.674.674 0 00-.66-.63c-.36 0-.64.28-.67.63h-.01c0 .37.3.67.68.67.37 0 .67-.3.67-.67h-.01zM37.06 36.56a.674.674 0 100 1.35c.37 0 .67-.3.67-.67 0-.38-.3-.68-.67-.68zM37.06 39.67c-.38 0-.68.3-.68.67 0 .37.3.67.68.67a.67.67 0 000-1.34zM41.03 39.67c-.38 0-.68.3-.68.67 0 .37.3.67.68.67.37 0 .67-.3.67-.67 0-.37-.31-.67-.67-.67zM62.84 10.26v1.35c.31 0 .56-.21.63-.5.02-.06.04-.11.04-.17 0-.38-.3-.68-.67-.68zM62.84 7.16V6.5v.66c-.38 0-.67.3-.67.68 0 .37.29.67.67.67V8.5v.01c.37 0 .67-.3.67-.67 0-.38-.3-.68-.67-.68zM64.81 8.7a.674.674 0 100 1.35c.37 0 .67-.3.67-.67 0-.37-.3-.68-.67-.68zM68.77 8.7a.674.674 0 100 1.35c.37 0 .67-.3.67-.67 0-.37-.3-.68-.67-.68zM72.74 8.7a.674.674 0 00-.61.97c.11.22.34.38.61.38.34 0 .61-.26.65-.59 0-.03.02-.05.02-.08 0-.37-.31-.68-.67-.68zM39.06 10.26a.674.674 0 100 1.35c.37 0 .67-.3.67-.67 0-.38-.3-.68-.67-.68zM42.35 7.84c0 .37.3.67.68.67.37 0 .67-.3.67-.67a.674.674 0 10-1.35 0zM46.99 7.16a.674.674 0 100 1.35c.37 0 .67-.3.67-.67 0-.38-.3-.68-.67-.68zM50.95 4.06a.674.674 0 100 1.35c.37 0 .67-.3.67-.67 0-.38-.3-.68-.67-.68zM50.95 10.26a.674.674 0 100 1.35c.37 0 .67-.3.67-.67 0-.38-.3-.68-.67-.68zM50.95 7.16a.674.674 0 100 1.35c.37 0 .67-.3.67-.67 0-.38-.3-.68-.67-.68zM54.92 4.06a.674.674 0 100 1.35c.38 0 .67-.3.67-.67 0-.38-.3-.68-.67-.68zM54.92 10.26a.674.674 0 100 1.35c.38 0 .67-.3.67-.67 0-.38-.3-.68-.67-.68zM54.92 7.16a.674.674 0 100 1.35c.38 0 .67-.3.67-.67 0-.38-.3-.68-.67-.68zM58.88 4.06a.674.674 0 100 1.35c.37 0 .67-.3.67-.67 0-.38-.3-.68-.67-.68zM58.88 10.26a.674.674 0 100 1.35c.37 0 .67-.3.67-.67 0-.38-.3-.68-.67-.68zM58.88 7.16a.674.674 0 100 1.35c.37 0 .67-.3.67-.67 0-.38-.3-.68-.67-.68zM41.03 8.7a.674.674 0 100 1.35c.37 0 .67-.3.67-.67 0-.37-.31-.68-.67-.68zM44.99 5.6a.674.674 0 100 1.35c.37 0 .67-.3.67-.67 0-.37-.3-.68-.67-.68zM44.99 8.7a.674.674 0 100 1.35c.37 0 .67-.3.67-.67 0-.37-.3-.68-.67-.68zM48.95 5.6a.674.674 0 100 1.35c.37 0 .67-.3.67-.67 0-.37-.3-.68-.67-.68zM48.95 8.7a.674.674 0 100 1.35c.37 0 .67-.3.67-.67 0-.37-.3-.68-.67-.68zM52.92 8.7a.674.674 0 100 1.35c.37 0 .67-.3.67-.67 0-.37-.3-.68-.67-.68zM52.92 5.6a.674.674 0 100 1.35c.37 0 .67-.3.67-.67 0-.37-.3-.68-.67-.68zM56.88 8.7a.674.674 0 100 1.35c.37 0 .67-.3.67-.67 0-.37-.3-.68-.67-.68zM56.88 5.6a.674.674 0 100 1.35c.37 0 .67-.3.67-.67 0-.37-.3-.68-.67-.68zM60.85 5.6a.674.674 0 100 1.35c.37 0 .67-.3.67-.67 0-.37-.31-.68-.67-.68zM60.85 8.7a.674.674 0 100 1.35c.37 0 .67-.3.67-.67 0-.37-.31-.68-.67-.68z" />
  <path d="M69.37 6.26c-1-.16-1.84-.72-2.89-1.44C64.08 3.2 60.79.97 52.45.95h-.02c-2.63 0-6.88 1.42-9.1 2.37-.76.33-1.54.69-2.3 1.07-3.1-1.79-7.11-3.24-11.15-2.32-1.69.38-3.21.75-4.57 1.08-1.72.42-3.2.77-4.34 1-4.95.98-16.52.33-20.36.07v2.01c.04 0 .08.01.12.01 0 .01-.01.03-.01.04 0 .37.3.67.68.67.35 0 .64-.28.66-.63.2.01.41.02.63.04.62.04 1.3.07 2.03.11.08.28.33.48.64.48.28 0 .52-.18.62-.43.88.04 1.81.07 2.77.1.12.19.32.33.57.33.23 0 .42-.13.54-.3.96.02 1.93.03 2.89.03.12.16.31.27.53.27.22 0 .41-.11.53-.28.98-.01 1.93-.03 2.85-.08a.67.67 0 001.21-.07c.97-.07 1.87-.16 2.67-.28 0 .01-.01.02-.01.03 0 .37.3.67.68.67.37 0 .67-.3.67-.67 0-.09-.02-.18-.05-.27 1.1-.23 2.43-.55 3.95-.92.24-.06.5-.12.75-.18a.666.666 0 001.31-.18c0-.05-.02-.09-.03-.13.79-.19 1.62-.38 2.5-.59.27-.06.54-.09.82-.12.59-.08 1.18-.12 1.76-.09.07.02.13.04.2.04.04 0 .07-.02.11-.02.58.04 1.15.14 1.71.26-.29.08-.51.33-.51.65 0 .37.3.67.68.67.37 0 .67-.3.67-.67 0-.2-.09-.38-.23-.5 1.17.31 2.3.78 3.35 1.31-.4.23-.79.46-1.16.69a.674.674 0 00-.66-.63c-.38 0-.68.3-.68.68 0 .26.15.47.37.59-.36.25-.71.5-1.03.74a.668.668 0 00-1.3.23c0 .25.14.46.35.57-.47.43-.82.84-1.04 1.21.03-.07.05-.15.05-.24a.674.674 0 10-.67.67c.23 0 .42-.12.54-.3-.06.11-.11.22-.14.33-.09.33-.08.66.05.95.23.94.77 1.74 1.55 2.33h-.01a.674.674 0 100 1.35c.37 0 .67-.3.67-.67 0-.13-.04-.24-.1-.34.12.07.23.15.36.21.74.34 1.6.52 2.52.55.12.15.31.25.52.25.22 0 .41-.12.53-.29.89-.06 1.82-.24 2.78-.55-.01.05-.03.11-.03.16 0 .37.3.67.68.67.37 0 .67-.3.67-.67 0-.22-.1-.4-.26-.52.38-.15.75-.34 1.13-.52.12.09.26.16.42.16.2 0 .38-.09.5-.24.42.19.85.35 1.28.49a.672.672 0 00.22 1.31c.37 0 .67-.3.67-.67 0-.17-.07-.32-.17-.44.71.17 1.41.27 2.08.33l6.06 5.4.11.17.03-.04c.23.21.47.45.74.71.18.18.38.38.58.57.61.61 1.27 1.27 1.93 1.95-.05-.01-.09-.03-.14-.03a.674.674 0 10.67.67c0-.05-.02-.09-.03-.13.35.36.7.72 1.05 1.07-.24.1-.41.34-.41.61 0 .38.3.68.68.68.27 0 .5-.16.6-.4.51.56.8 1.96.41 3.14-.28.83-.8 1.32-1.57 1.43-.06.01-.11.04-.17.06l-.02-.07h-.59c.02-.06.04-.12.04-.18 0-.38-.3-.68-.67-.68-.13 0-.24.04-.34.1l-.99-.99c0-.36-.3-.66-.66-.66l-3.45-3.45a.993.993 0 00-.95-.25c-.17.04-.33.11-.47.25-.04.04-.06.09-.09.13-.13.18-.21.38-.21.58 0 .25.1.51.29.7l5.32 5.33a.672.672 0 00-1.15.47.674.674 0 101.35 0c0-.18-.07-.35-.19-.47l.91.91c-.1.81-.43 1.61-1.07 2.08a.658.658 0 00-.31-.09c-.31 0-.56.21-.64.48h-.87l-.69-.72c.07.03.15.05.23.05.38 0 .67-.3.67-.67 0-.38-.29-.68-.67-.68-.38 0-.68.3-.68.68 0 .07.02.13.04.2l-1.09-1.14c.23-.11.4-.34.4-.62a.67.67 0 00-1.27-.3l-.82-.86c.08-.11.13-.23.13-.37 0-.38-.3-.68-.67-.68a.69.69 0 00-.35.11l-.9-.95c-.02-.02-.05-.03-.07-.05 0-.19-.08-.35-.2-.48a.665.665 0 00-.47-.19c-.38 0-.68.3-.68.67v.02c-.33.31-.38.79-.18 1.18.04.08.08.16.15.23l1.07 1.12a.647.647 0 00-.36-.12.674.674 0 10.67.67c0-.12-.04-.23-.1-.33L50.7 32a.67.67 0 00-.45.63c0 .37.3.67.68.67.28 0 .52-.17.62-.41l.82.87c-.09.11-.16.25-.16.41 0 .38.3.68.68.68.15 0 .27-.06.38-.14l.89.93c0 .01-.01.03-.01.04-.13.5-.34.96-.63 1.33a.666.666 0 00-.63-.47c-.38 0-.68.3-.68.68 0 .2.09.37.23.49-.07.01-.13.04-.2.04-.17.01-.3.01-.39.01-.03-.05-.05-.11-.1-.15l-1.84-1.93-.82-.87a.67.67 0 10-.8-.84l-.84-.89a.672.672 0 00-.48-1.14c-.17 0-.32.07-.44.17l-.19-.2a.806.806 0 00-.26-.18v-.05c-.06-1.12-.69-2.16-1.76-2.83-.46-.28-.94-.46-1.42-.55-.02-.48-.13-.94-.33-1.38.12.1.27.17.44.17.37 0 .67-.3.67-.68 0-.37-.3-.67-.67-.67-.38 0-.68.3-.68.67 0 .03.01.05.02.08-.25-.4-.59-.76-.99-1.06.19-.12.33-.32.33-.57 0-.37-.3-.67-.67-.67-.37 0-.66.29-.67.64-.36-.15-.72-.24-1.09-.29 0-.19-.02-.38-.06-.57.3-.07.52-.33.52-.65 0-.37-.3-.67-.67-.67-.12 0-.22.04-.32.09-.26-.42-.61-.78-1.03-1.1a.654.654 0 00-.64-.54c-.07 0-.14.02-.2.04-.46-.21-.93-.32-1.4-.36a.664.664 0 00-.37-1.22c-.38 0-.68.29-.68.67 0 .25.14.45.33.57-.26.03-.51.09-.76.17-.14-.61-.47-1.17-.95-1.64.02 0 .04.01.06.01.37 0 .67-.3.67-.67a.674.674 0 10-1.35 0c0 .06.02.12.04.18-.03-.02-.05-.04-.08-.06-.4-.25-.82-.41-1.24-.51-.5-.11-1-.12-1.48-.02a.659.659 0 00-.51-.26c-.38 0-.68.3-.68.68 0 .04.02.07.02.1-.12.08-.23.17-.34.26-.2.18-.42.4-.64.61-.1-.06-.21-.1-.33-.1-.38 0-.68.29-.68.67 0 .12.04.23.09.32l-.86.86a.67.67 0 00-.55-.31c-.38 0-.68.3-.68.67 0 .24.13.44.32.57-.16.17-.33.33-.49.5-.15.16-.3.31-.45.46a.669.669 0 00-.66-.64c-.38 0-.68.3-.68.67 0 .37.29.66.65.67-.27.27-.54.55-.8.8-.25.25-.46.57-.64.91-1.14-.3-2.43-.6-3.84-.91a.664.664 0 00-.66-.61.67.67 0 00-.59.35c-.43-.09-.86-.17-1.3-.26a43.15 43.15 0 00-3.53-.53c.1-.12.16-.27.16-.43 0-.37-.3-.67-.67-.67-.38 0-.68.3-.68.67 0 .12.04.23.1.33-.89-.08-1.79-.15-2.74-.19.01-.05.03-.09.03-.14 0-.37-.3-.67-.67-.67-.38 0-.68.3-.68.67 0 .04.01.07.02.1-.86-.02-1.74-.03-2.65-.03 0-.02.01-.05.01-.07 0-.37-.3-.66-.66-.67h-.01c-.21 0-.39.1-.51.24-.1.12-.17.27-.17.43 0 .03.01.06.02.1-.35.01-.69.01-1.05.02-.35.01-.72.03-1.08.05v2c5.62-.25 10.46 0 14.37.76 2.37.46 4.5.94 6.23 1.39-.08.79-.01 1.62.25 2.39.51 1.54 1.67 2.56 3.17 2.78.05.01.1.01.15.01h.19c.05.41.12.81.25 1.19.56 1.7 1.83 2.82 3.49 3.06.05.01.1.01.15.01h.17c.05.21.09.43.16.63.58 1.74 1.88 2.88 3.57 3.13l1.12.17c.62 1.17 1.66 1.94 2.96 2.14.85.13 1.66.19 2.43.19 2.52 0 4.59-.68 6.11-2 .66.22 1.38.35 2.18.35.38 0 .77-.03 1.19-.09 1.31-.2 2.33-.84 2.94-1.84.27.02.52 0 .69 0 2.05-.1 3.38-1.86 3.8-3.78h.19c.05 0 .1 0 .15-.01 2.33-.35 3.5-2.25 3.75-4.26h.18c.05 0 .1 0 .15-.01 1.5-.22 2.66-1.24 3.17-2.78.16-.47.24-.96.27-1.46 1.92-.53 4.28-1.04 7-1.04 4.44 0 11.47.21 14.37.31v-2h-.13a.664.664 0 00-.64-.52c-.31 0-.56.2-.64.48-.79-.02-1.72-.05-2.71-.08-.1-.23-.34-.4-.61-.4-.26 0-.49.15-.6.37-.91-.02-1.87-.05-2.82-.07a.643.643 0 00-.54-.3c-.23 0-.41.11-.54.28-1-.02-1.99-.04-2.93-.05a.659.659 0 00-.5-.23c-.2 0-.38.09-.5.22h-1.21c-.59 0-1.17.03-1.72.07a.654.654 0 00-1.14.1c-.97.11-1.87.28-2.72.46.02-.06.04-.12.04-.18 0-.37-.3-.67-.67-.67-.38 0-.68.3-.68.67 0 .18.07.33.18.45-.17.04-.34.09-.5.13a4.37 4.37 0 00-.76-1.49.67.67 0 00.46-.64c0-.37-.3-.67-.67-.67v1.06-1.06c-.29 0-.53.18-.62.43-.29-.29-.57-.58-.87-.88.1-.12.16-.26.16-.43 0-.37-.3-.67-.67-.67-.16 0-.3.06-.42.16-.14-.14-.27-.28-.41-.42-.09-.1-.19-.19-.28-.29l-.21-.21c.01-.04.02-.08.02-.12 0-.38-.3-.67-.67-.67-.04 0-.08.02-.11.02-.18-.18-.35-.35-.52-.51-.3-.3-.58-.57-.84-.82l-.03-.03-.06-.06c-.08-.07-.17-.16-.24-.23h-.01l-.01-.01-4.51-4.02c.95-.09 1.58-.23 1.66-.24.08-.02.15-.06.22-.1a.672.672 0 00.49 1.14c.38 0 .67-.3.67-.67 0-.38-.29-.68-.67-.68-.09 0-.18.02-.26.05.24-.22.36-.54.3-.88v-.06a.992.992 0 00-1.2-.75c-.01 0-.27.06-.69.12-.05-.01-.1-.03-.15-.03-.12 0-.22.04-.32.09-.83.09-2.04.15-3.34-.01a.61.61 0 00-.3-.08c-.04 0-.08.02-.12.02-.49-.08-.99-.19-1.48-.34a.67.67 0 00.31-.55.674.674 0 10-1.35 0c0 .06.02.12.04.17-.25-.11-.5-.23-.74-.37a.975.975 0 00-.99 0c-.35.2-.68.36-1.01.51.05-.1.09-.2.09-.31a.674.674 0 10-1.35 0c0 .31.22.57.52.64-.46.19-.91.35-1.34.47a.65.65 0 00-.51-.25c-.32 0-.58.22-.65.52-1.05.18-1.95.17-2.67.02-.07-.31-.32-.54-.64-.54-.16 0-.31.06-.43.16-.4-.22-.71-.5-.91-.85.02-.06.04-.12.04-.18 0-.2-.08-.37-.22-.49.16-.21.46-.5.88-.85a.674.674 0 001.31-.22.66.66 0 00-.3-.55c.31-.22.65-.45 1.03-.69a.67.67 0 001.27-.3.66.66 0 00-.14-.39c.34-.2.7-.4 1.07-.61.11.07.22.12.36.12.36 0 .66-.3.67-.66.76-.39 1.57-.77 2.42-1.13.72-.31 1.55-.62 2.41-.91a.672.672 0 00.47 1.16c.37 0 .67-.3.67-.67 0-.35-.27-.63-.61-.67.47-.15.94-.3 1.41-.43.12.13.29.21.49.21.3 0 .55-.21.63-.49 1.03-.24 1.97-.39 2.7-.4a.78.78 0 00-.04.22.674.674 0 101.35 0c0-.07-.02-.14-.04-.2.96.03 1.85.08 2.66.17 0 .01-.01.02-.01.03 0 .38.3.68.68.68.32 0 .58-.23.64-.54 1.97.31 3.46.78 4.67 1.33-.01.03-.02.06-.02.1 0 .37.29.67.67.67v-.46.46c.19 0 .36-.08.48-.21.36.2.69.4 1.01.6a.672.672 0 00.48 1.15c.28 0 .52-.18.62-.42.36.25.72.48 1.09.7-.23.11-.39.34-.39.61 0 .37.3.67.68.67.37 0 .67-.3.67-.67 0-.04-.02-.08-.02-.12.5.23 1.02.42 1.6.51.36.06.81.1 1.33.14.11.08.24.14.39.14.12 0 .22-.04.32-.09 1.05.05 2.29.08 3.62.09h.04c1.23.01 2.53 0 3.8-.02.05.01.09.03.14.03.06 0 .11-.02.16-.03.18 0 .36-.01.54-.01 1.02-.02 2-.04 2.91-.07.1.06.22.11.35.11.14 0 .27-.06.38-.13.92-.03 1.73-.06 2.36-.08V6.26l-14.39.15c-.66-.04-1.22-.09-1.64-.15zM26.23 28.24c-.54.54-.92 1.32-1.13 2.19a.65.65 0 00-.5.32c-.39-.13-.7-.36-.94-.71.13-.12.22-.29.22-.49 0-.37-.28-.67-.65-.68-.1-.63-.04-1.26.11-1.78.31-.06.54-.32.54-.65 0-.08-.02-.16-.05-.24l.85-.85a.672.672 0 001.17-.46c0-.2-.09-.37-.23-.49l.14-.14c.25-.26.51-.52.76-.78.06.31.32.55.65.55.37 0 .67-.3.67-.68 0-.33-.24-.59-.55-.65.47-.47.92-.93 1.34-1.33-.1.12-.17.26-.17.42a.674.674 0 101.35 0c0-.37-.3-.67-.67-.67-.17 0-.32.07-.43.16.29-.28.56-.54.8-.76.27-.25.62-.32.97-.29v.02c0 .38.29.68.67.68v-.5.5c.18 0 .35-.07.47-.2.29.26.61.72.42 1.37-.03.12-.04.23-.03.35-.13.13-.27.26-.41.4a.647.647 0 00-.44-.18v.61-.61a.664.664 0 00-.5 1.11c-.28.29-.58.58-.87.88a.668.668 0 00-1.3.22c0 .3.19.54.46.64-.16.16-.31.32-.47.48-.22.22-.43.44-.65.66a.78.78 0 00.04-.22c0-.37-.3-.67-.67-.67a.674.674 0 100 1.35c.08 0 .15-.02.22-.04-.43.39-.82.79-1.19 1.16zm4 3.56c-.44.45-.78 1.05-1.01 1.72-.03 0-.05-.02-.08-.02-.38 0-.68.3-.68.67 0 .3.2.55.47.64l-.03.27c-.86-.17-1.46-.73-1.78-1.69-.01-.03-.01-.06-.02-.1.03 0 .05.02.08.02.37 0 .67-.3.67-.67a.672.672 0 00-.93-.63c0-.69.15-1.34.38-1.83.31-.06.55-.32.55-.64 0-.03-.01-.05-.01-.07.3-.31.61-.62.93-.94.11.08.24.13.38.13.37 0 .67-.3.67-.68 0-.14-.06-.27-.13-.38.07-.07.13-.14.2-.21.22-.22.44-.45.66-.67.11.23.33.39.6.39v-1 1c.37 0 .67-.3.67-.68 0-.27-.16-.5-.39-.6.35-.36.69-.7 1.02-1.03 0 .03-.02.05-.02.08a.674.674 0 101.35 0c0-.37-.3-.67-.67-.67-.03 0-.05.01-.08.02.4-.39.78-.76 1.11-1.06.15-.14.31-.23.49-.29-.12.12-.19.28-.19.46a.674.674 0 101.35 0c0-.22-.11-.4-.27-.52.31.05.61.17.85.32.2.13.71.5.87 1.11-.05-.01-.1-.03-.16-.03-.38 0-.68.3-.68.67 0 .15.06.27.13.38-.08.06-.17.12-.25.19-.2.19-.41.4-.63.61a.643.643 0 00-.54-.3c-.38 0-.68.3-.68.67 0 .24.13.44.31.56-.32.33-.64.69-.98 1.05 0-.02.01-.04.01-.06 0-.37-.3-.67-.67-.67a.674.674 0 100 1.35c.04 0 .07-.02.11-.02-.03.03-.06.06-.09.1-.65.7-1.31 1.42-1.99 2.13v-.64c.37 0 .67-.3.67-.67 0-.38-.3-.68-.67-.68v1.04-1.04c-.38 0-.67.3-.67.68 0 .37.29.67.67.67v.64c-.3.3-.6.62-.9.92zm3.67 3.89s0 .01 0 0c-.17.31-.31.64-.41 1.01a.66.66 0 00-.39-.14.674.674 0 100 1.35c.06 0 .12-.02.18-.04-.03.35-.03.7 0 1.05l-.23-.03c-.92-.14-1.56-.71-1.91-1.67-.02-.04-.04-.07-.05-.11-.08-.25-.13-.52-.17-.78.07.02.14.04.22.04v.7-.7c.37 0 .67-.3.67-.67h-.01a.674.674 0 00-.66-.63v.07-.07c-.08 0-.16.02-.23.05.04-.36.12-.7.23-1 .13-.37.31-.69.51-.89.48-.48.95-.97 1.41-1.46.02 0 .03.01.05.01.37 0 .67-.3.67-.68 0-.03-.01-.05-.02-.08.28-.3.57-.61.84-.91l.05-.05a.67.67 0 001.13-.49c0-.2-.09-.37-.22-.5l.86-.92c.07.3.33.53.65.53.37 0 .67-.3.67-.68 0-.32-.23-.58-.53-.64.14-.14.29-.29.43-.42.23-.21.49-.32.77-.37.06.32.32.57.66.57.26 0 .49-.16.6-.38.11.05.21.1.3.16.14.09.41.29.64.59-.15.12-.25.3-.25.5 0 .28.16.51.4.62-.29.14-.56.31-.8.53-.08.08-.17.16-.25.24-.08-.29-.33-.51-.63-.51-.38 0-.68.3-.68.68 0 .31.22.56.51.63-.57.59-1.16 1.23-1.77 1.9-.84.92-1.71 1.87-2.61 2.77-.26.21-.46.51-.63.82zm5.54 5.67a.616.616 0 00-.37-.13c-.14 0-.26.05-.36.12-.55-.02-1.08-.08-1.57-.15-.82-.12-1.39-.64-1.69-1.54-.03-.08-.04-.16-.06-.25.23-.11.39-.34.39-.61 0-.32-.22-.57-.51-.65.05-.81.31-1.54.66-1.89.18-.18.36-.37.54-.56.29-.29.57-.59.85-.88.18-.07.31-.22.37-.4.3-.33.61-.65.9-.97.06-.06.12-.13.17-.19a.67.67 0 00.97-.6c0-.13-.04-.24-.1-.34.28-.31.56-.6.83-.87.12.19.32.33.57.33.37 0 .67-.3.67-.68 0-.23-.12-.42-.3-.54.24-.19.52-.28.82-.28.38 0 .77.13 1.07.32.24.15.96.67.8 1.55l-.4.48a.669.669 0 00-.66-.64.674.674 0 100 1.35c.03 0 .05-.01.08-.02l-2.01 2.39-.94 1.12c-.35.42-.3 1.05.12 1.41.27.23.63.29.94.19.79.86 1.56 1.5 2.18 1.93-1.18.72-2.6.98-3.96 1zm9-1.72c-2.52.37-3.98-.8-5.81-2.67l.53-.63c.29-.07.52-.32.53-.63l.01-.01.84-1.01c.12.1.27.17.44.17.37 0 .67-.3.67-.68 0-.03-.01-.06-.02-.1l1.02 1.07c-.19.11-.33.3-.34.54h-.01c0 .37.3.67.68.67.23 0 .42-.12.54-.3l.82.87a.62.62 0 00-.08.31.672.672 0 00.95.61l.77.81c-.29.54-.78.87-1.54.98z" />
</svg>
