<svg width="1200pt" height="1200pt" version="1.1" viewBox="0 0 1200 1200" xmlns="http://www.w3.org/2000/svg">
 <g>
  <path d="m260 360h680c11 0 20-8.8008 20-20v-80c0-11-9-20-20-20h-180v-100c0-11-9-20-20-20h-280c-11 0-20 9-20 20v100h-180c-11 0-20 9-20 20v80c0 11.199 9 20 20 20zm220-200h240v80h-240z"/>
  <path d="m380 1080h440c10.398 0 19-8 20-18.199l55.199-661.8h-590.4l55.199 661.8c1 10.199 9.6016 18.199 20 18.199zm340-521c0.60156-11 10-19.398 21-18.801 11 0.60156 19.398 10 18.801 21l-20 360c-0.40234 10.602-9.1992 18.801-19.801 18.801h-1.1992c-11-0.60156-19.398-10-18.801-21zm-140 1c0-11 9-20 20-20s20 9 20 20v360c0 11-9 20-20 20s-20-9-20-20zm-121-20c11.398-0.60156 20.398 7.8008 21 18.801l20 360c0.60156 11-7.8008 20.398-18.801 21h-1.1992c-10.602 0-19.398-8.1992-20-18.801l-20-360c-0.60156-10.801 7.8008-20.398 19-21z"/>
 </g>
</svg>
