<svg
xmlns="http://www.w3.org/2000/svg"
width="90pt"
height="90pt"
viewBox="0 0 90 90"
>
  <g fillRule="evenodd" clipRule="evenodd">
    <path d="M58.469 22.875c.402 1.367.694-1.075 1.853-.464.327 2.334-1.707 2.306-1.853 4.167 2.742 1.574 3.985 5.547 8.799 3.705.116 2.585-1.817 3.123-3.242 4.168-.223 1.458 1.421 1.049.928 2.778a17.513 17.513 0 01-3.242 1.852c.811 6.38-1.521 11.116-2.779 16.67-4.95 8.547-16.585 15.77-30.563 14.356-6.677-.677-14.82-2.619-18.06-7.41 9.259-.158 12.327-6.504 15.281-12.965-.761-.783-2.512-.576-3.241-1.389-.383-1.311.652-1.201.463-2.317-1.201-.651-3.063-.641-4.167-1.389-1.118-1.075.723-1.239.926-2.314-2.296-1.409-5.194-2.216-7.409-3.705.089-1.455.86-2.227 2.314-2.316-.818-2.222-3.177-.109-3.704-2.314-.811-2.973 2.485-1.836 2.778-3.705-.884-1.432-3.334-1.297-4.168-2.778 9.183-7.181 21.763 2.161 26.396 8.335 3.781-12.272 14.536-17.57 26.395-21.765.788-.169.873.361.926.927-2.856 2.341-2.709 4.914-4.631 7.873zM37.168 37.692c9.408-.994 7.468-15.604 19.911-12.04-1.484-2.632.719-5.149 1.39-7.873-11.489 2.222-18.968 9.968-21.301 19.913zM12.625 27.505c1.161.846 3.05.964 3.705 2.315-.436 1.88-3.116 1.516-3.705 3.241.807 1.354 3.433.889 4.168 2.316-.391 1.461-2.388 1.317-2.778 2.778 2.625.925 4.466 2.634 7.409 3.241.104 1.382-1.71 1.575-.463 2.779 1.77-.072 3.373.023 4.168.926-.262.963-1.323 1.497-.463 2.315 1.793.438 1.906-1.805 3.241-.463-2.312 7.721-5.86 14.207-13.43 16.672 10.852 7.364 33 5.222 39.824-4.168 2.21-6.125 6.353-10.32 5.095-19.913.553-1.146 1.585-1.811 2.778-2.316.224-1.458-1.42-1.049-.927-2.778.872-.671 2.407-.681 2.778-1.852-1.448-.095-3.398.312-4.168-.464-.103-.875.523-1.021.464-1.852-11.672-10.594-13.697 9.073-24.542 9.262-3.654-7.43-13.65-14.981-23.154-12.039z" />
    <path d="M50.597 31.672c3.02-.085 4.474 1.393 6.021 2.779-.155 2.468-1.904 3.344-4.631 3.241-.204-.569-.593-.951-1.39-.926-.144-1.521-1.072-3.791 0-5.094zm3.242 3.705c-.16-1.075-.3-2.17-1.853-1.853-.215 1.451.403 2.068 1.853 1.853z" />
    <path d="M84.402 23.8c2.115-7.496-.541-14.808-1.39-19.912 1.587-1.012 4.361.078 6.019.463.588 10.189 3.733 25.205-2.778 31.027.683 17.507-8.47 25.178-15.743 34.731.659-1.005 6.111-1.688 7.871-1.854 1.96-2.672 2.315-6.945 5.094-8.797 1.518 2.763-3.09 3.383-2.314 6.946 3.639.545 5.425-4.76 7.409-7.41.572 7.211-5.574 7.7-8.799 11.114 2.689.988 5.618 1.961 7.872 0-.669 6.013-7.72.945-11.114 1.389-4.227.555-5.496 3.909-7.872 6.482 2.528-.72 4.999-3.942 7.872-2.778-4.164 2.157-9.444 5.173-9.725 9.725.509 1.962 2.542 2.397 2.316 5.096-4.87.387-10.456.244-15.745 0 1.355-6.65 3.7-13.32 7.41-18.524 3.161-4.438 8.103-6.564 8.335-11.113.189-3.716-2.557-4.949-3.242-8.799 3.82 1.274 5.39 4.799 5.094 10.188 6.985-4.211 10.644-21.772 0-24.543.327-1.665 2.175-.651 2.778 0 .217-1.823-.971-2.405.464-3.241 1.734 1.661.46 6.333 3.704 6.482 2.365-10.084-2.42-17.028-12.504-16.207.667-3.318 5.311-.247 8.336-.464.615-2.683 1.322-5.122-.926-7.872-1.796-2.198-4.641-2.167-8.799-4.167-3.702-1.782-6.82-5.125-8.797-6.021-1.056-.478-3.636.437-3.242-1.389 2.918-2.67 6.075 2.19 8.799 2.778 1.143-1.595-1.363-2.744-1.39-4.63 2.358-.834 5.498 1.194 9.261.463 2.986 3.832 6.755 3.316 9.262 6.021 3.508 3.782 1.298 11.699 6.484 14.816z" />
    <path d="M28.833-.743c-.87 4.069-3.254 6.625-6.946 7.872 6.653.632 14.178-1.873 16.207-7.409 1.091-.011 1.363.797 2.778.463.103 2.417-1.385 3.245-2.315 4.631 4.322-1.087 9.002-6.211 13.892-3.705-.485 3.195-6.61.751-7.872 4.168-6.267 3.149-14.575 4.256-22.69 5.557 1.529 1.249 4.705.852 5.557 2.778-1.664 1.378-7.669-2.797-11.114 0-.07 1.459 2.583.196 1.852 2.316-16.12-2.332-12.489 15.48-12.966 30.099C4.883 56.19 4.114 64.676 8.92 71.034c4.836 6.397 11.248 10.141 20.838 10.651.33-2.437-4.343-3.611-4.63-6.946 3.002.373 3.443 3.505 5.557 5.094 4.631 3.48 11.151 4.138 16.67 6.946-4.467 2.473-10.977 1.632-16.67 1.389-9.594-.412-19.924-2.662-29.174-.925-1.22-10.613.866-21.115.463-32.88C1.6 43.456-.688 32.681-.805 22.411c-.047-4.133 1.693-8.194 1.853-12.04C1.209 6.488-1.643 3.914-.342.183c2.832 2.962 3.217 9.5 2.315 14.819 1.171-3.021 4.69-4.374 6.483-6.946 1.558-2.235.899-6.063 4.167-6.946.491 3.269-.938 4.619-1.389 6.946 4.089-1.935 13.221-5.299 16.208-8.335.373-.245.753-.484 1.391-.464zM2.9 36.303c-.295-1.71.6-4.612-.462-5.557-.491 1.895-.679 4.173.462 5.557z" />
  </g>
</svg>
